<?xml version="1.0" encoding="UTF-8" standalone="no"?>
<!DOCTYPE svg PUBLIC "-//W3C//DTD SVG 1.1//EN"
 "http://www.w3.org/Graphics/SVG/1.1/DTD/svg11.dtd">
<!-- Generated by graphviz version 6.0.1 (0)
 -->
<!-- Title: snakemake_dag Pages: 1 -->
<svg width="562pt" height="476pt"
 viewBox="0.00 0.00 561.50 476.00" xmlns="http://www.w3.org/2000/svg" xmlns:xlink="http://www.w3.org/1999/xlink">
<g id="graph0" class="graph" transform="scale(1 1) rotate(0) translate(4 472)">
<title>snakemake_dag</title>
<polygon fill="white" stroke="none" points="-4,4 -4,-472 557.5,-472 557.5,4 -4,4"/>
<!-- 0 -->
<g id="node1" class="node">
<title>0</title>
<path fill="none" stroke="#68d856" stroke-width="2" d="M411.5,-36C411.5,-36 381.5,-36 381.5,-36 375.5,-36 369.5,-30 369.5,-24 369.5,-24 369.5,-12 369.5,-12 369.5,-6 375.5,0 381.5,0 381.5,0 411.5,0 411.5,0 417.5,0 423.5,-6 423.5,-12 423.5,-12 423.5,-24 423.5,-24 423.5,-30 417.5,-36 411.5,-36"/>
<text text-anchor="middle" x="396.5" y="-15.5" font-family="sans" font-size="10.00">all</text>
</g>
<!-- 1 -->
<g id="node2" class="node">
<title>1</title>
<path fill="none" stroke="#56d86b" stroke-width="2" d="M315.5,-108C315.5,-108 241.5,-108 241.5,-108 235.5,-108 229.5,-102 229.5,-96 229.5,-96 229.5,-84 229.5,-84 229.5,-78 235.5,-72 241.5,-72 241.5,-72 315.5,-72 315.5,-72 321.5,-72 327.5,-78 327.5,-84 327.5,-84 327.5,-96 327.5,-96 327.5,-102 321.5,-108 315.5,-108"/>
<text text-anchor="middle" x="278.5" y="-87.5" font-family="sans" font-size="10.00">github_page_index</text>
</g>
<!-- 1&#45;&gt;0 -->
<g id="edge2" class="edge">
<title>1&#45;&gt;0</title>
<path fill="none" stroke="grey" stroke-width="2" d="M307.37,-71.88C323.26,-62.45 343.13,-50.66 360.08,-40.61"/>
<polygon fill="grey" stroke="grey" stroke-width="2" points="362.33,-43.34 369.15,-35.23 358.76,-37.32 362.33,-43.34"/>
</g>
<!-- 2 -->
<g id="node3" class="node">
<title>2</title>
<path fill="none" stroke="#56d0d8" stroke-width="2" d="M63,-180C63,-180 12,-180 12,-180 6,-180 0,-174 0,-168 0,-168 0,-156 0,-156 0,-150 6,-144 12,-144 12,-144 63,-144 63,-144 69,-144 75,-150 75,-156 75,-156 75,-168 75,-168 75,-174 69,-180 63,-180"/>
<text text-anchor="middle" x="37.5" y="-159.5" font-family="sans" font-size="10.00">get_rulegraph</text>
</g>
<!-- 2&#45;&gt;1 -->
<g id="edge8" class="edge">
<title>2&#45;&gt;1</title>
<path fill="none" stroke="grey" stroke-width="2" d="M75.21,-148.46C80.01,-146.93 84.86,-145.41 89.5,-144 132.9,-130.83 182.27,-117.02 219.66,-106.81"/>
<polygon fill="grey" stroke="grey" stroke-width="2" points="220.66,-110.16 229.38,-104.16 218.82,-103.41 220.66,-110.16"/>
</g>
<!-- 3 -->
<g id="node4" class="node">
<title>3</title>
<path fill="none" stroke="#8fd856" stroke-width="2" d="M137,-324C137,-324 68,-324 68,-324 62,-324 56,-318 56,-312 56,-312 56,-300 56,-300 56,-294 62,-288 68,-288 68,-288 137,-288 137,-288 143,-288 149,-294 149,-300 149,-300 149,-312 149,-312 149,-318 143,-324 137,-324"/>
<text text-anchor="middle" x="102.5" y="-303.5" font-family="sans" font-size="10.00">plot_variable_freq</text>
</g>
<!-- 3&#45;&gt;1 -->
<g id="edge6" class="edge">
<title>3&#45;&gt;1</title>
<path fill="none" stroke="grey" stroke-width="2" d="M103.36,-287.85C104.96,-269.09 109.52,-238.68 122.5,-216 148.81,-170.05 199.17,-134.47 235.57,-113.22"/>
<polygon fill="grey" stroke="grey" stroke-width="2" points="237.54,-116.13 244.5,-108.13 234.08,-110.04 237.54,-116.13"/>
</g>
<!-- 4 -->
<g id="node5" class="node">
<title>4</title>
<path fill="none" stroke="#56d892" stroke-width="2" d="M252,-468C252,-468 179,-468 179,-468 173,-468 167,-462 167,-456 167,-456 167,-444 167,-444 167,-438 173,-432 179,-432 179,-432 252,-432 252,-432 258,-432 264,-438 264,-444 264,-444 264,-456 264,-456 264,-462 258,-468 252,-468"/>
<text text-anchor="middle" x="215.5" y="-447.5" font-family="sans" font-size="10.00">process_metadata</text>
</g>
<!-- 4&#45;&gt;3 -->
<g id="edge10" class="edge">
<title>4&#45;&gt;3</title>
<path fill="none" stroke="grey" stroke-width="2" d="M196.87,-431.58C186.58,-421.58 173.82,-408.54 163.5,-396 146.8,-375.7 130.09,-350.92 118.39,-332.67"/>
<polygon fill="grey" stroke="grey" stroke-width="2" points="121.22,-330.6 112.91,-324.03 115.31,-334.35 121.22,-330.6"/>
</g>
<!-- 5 -->
<g id="node6" class="node">
<title>5</title>
<path fill="none" stroke="#56d8b9" stroke-width="2" d="M207.5,-252C207.5,-252 143.5,-252 143.5,-252 137.5,-252 131.5,-246 131.5,-240 131.5,-240 131.5,-228 131.5,-228 131.5,-222 137.5,-216 143.5,-216 143.5,-216 207.5,-216 207.5,-216 213.5,-216 219.5,-222 219.5,-228 219.5,-228 219.5,-240 219.5,-240 219.5,-246 213.5,-252 207.5,-252"/>
<text text-anchor="middle" x="175.5" y="-231.5" font-family="sans" font-size="10.00">get_sample_gps</text>
</g>
<!-- 4&#45;&gt;5 -->
<g id="edge11" class="edge">
<title>4&#45;&gt;5</title>
<path fill="none" stroke="grey" stroke-width="2" d="M208.2,-431.62C204.19,-421.41 199.44,-408.16 196.5,-396 185.32,-349.72 179.75,-294.42 177.26,-262.15"/>
<polygon fill="grey" stroke="grey" stroke-width="2" points="180.74,-261.86 176.52,-252.14 173.76,-262.37 180.74,-261.86"/>
</g>
<!-- 7 -->
<g id="node8" class="node">
<title>7</title>
<path fill="none" stroke="#d8a456" stroke-width="2" d="M289,-396C289,-396 218,-396 218,-396 212,-396 206,-390 206,-384 206,-384 206,-372 206,-372 206,-366 212,-360 218,-360 218,-360 289,-360 289,-360 295,-360 301,-366 301,-372 301,-372 301,-384 301,-384 301,-390 295,-396 289,-396"/>
<text text-anchor="middle" x="253.5" y="-375.5" font-family="sans" font-size="10.00">explore_read_size</text>
</g>
<!-- 4&#45;&gt;7 -->
<g id="edge12" class="edge">
<title>4&#45;&gt;7</title>
<path fill="none" stroke="grey" stroke-width="2" d="M224.89,-431.7C229.26,-423.64 234.56,-413.89 239.4,-404.98"/>
<polygon fill="grey" stroke="grey" stroke-width="2" points="242.52,-406.56 244.21,-396.1 236.37,-403.22 242.52,-406.56"/>
</g>
<!-- 10 -->
<g id="node11" class="node">
<title>10</title>
<path fill="none" stroke="#d85656" stroke-width="2" d="M420.5,-396C420.5,-396 338.5,-396 338.5,-396 332.5,-396 326.5,-390 326.5,-384 326.5,-384 326.5,-372 326.5,-372 326.5,-366 332.5,-360 338.5,-360 338.5,-360 420.5,-360 420.5,-360 426.5,-360 432.5,-366 432.5,-372 432.5,-372 432.5,-384 432.5,-384 432.5,-390 426.5,-396 420.5,-396"/>
<text text-anchor="middle" x="379.5" y="-375.5" font-family="sans" font-size="10.00">download_sra_reads</text>
</g>
<!-- 4&#45;&gt;10 -->
<g id="edge15" class="edge">
<title>4&#45;&gt;10</title>
<path fill="none" stroke="grey" stroke-width="2" d="M255.62,-431.88C278.14,-422.26 306.42,-410.19 330.27,-400.01"/>
<polygon fill="grey" stroke="grey" stroke-width="2" points="331.69,-403.21 339.51,-396.07 328.94,-396.77 331.69,-403.21"/>
</g>
<!-- 5&#45;&gt;1 -->
<g id="edge7" class="edge">
<title>5&#45;&gt;1</title>
<path fill="none" stroke="grey" stroke-width="2" d="M183.43,-215.75C192.36,-197.17 207.94,-167.16 225.5,-144 233.24,-133.79 242.86,-123.6 251.78,-114.92"/>
<polygon fill="grey" stroke="grey" stroke-width="2" points="254.2,-117.44 259.04,-108.01 249.38,-112.36 254.2,-117.44"/>
</g>
<!-- 6 -->
<g id="node7" class="node">
<title>6</title>
<path fill="none" stroke="#b6d856" stroke-width="2" d="M513,-180C513,-180 434,-180 434,-180 428,-180 422,-174 422,-168 422,-168 422,-156 422,-156 422,-150 428,-144 434,-144 434,-144 513,-144 513,-144 519,-144 525,-150 525,-156 525,-156 525,-168 525,-168 525,-174 519,-180 513,-180"/>
<text text-anchor="middle" x="473.5" y="-159.5" font-family="sans" font-size="10.00">get_project_tree_txt</text>
</g>
<!-- 6&#45;&gt;1 -->
<g id="edge5" class="edge">
<title>6&#45;&gt;1</title>
<path fill="none" stroke="grey" stroke-width="2" d="M425.8,-143.88C398.55,-134.09 364.2,-121.77 335.53,-111.47"/>
<polygon fill="grey" stroke="grey" stroke-width="2" points="336.64,-108.15 326.05,-108.07 334.28,-114.74 336.64,-108.15"/>
</g>
<!-- 7&#45;&gt;1 -->
<g id="edge4" class="edge">
<title>7&#45;&gt;1</title>
<path fill="none" stroke="grey" stroke-width="2" d="M251.91,-359.83C248.72,-320.97 243.13,-223.45 258.5,-144 260.2,-135.21 263.22,-125.98 266.4,-117.72"/>
<polygon fill="grey" stroke="grey" stroke-width="2" points="269.74,-118.81 270.29,-108.23 263.26,-116.16 269.74,-118.81"/>
</g>
<!-- 8 -->
<g id="node9" class="node">
<title>8</title>
<path fill="none" stroke="#d87d56" stroke-width="2" d="M421,-252C421,-252 338,-252 338,-252 332,-252 326,-246 326,-240 326,-240 326,-228 326,-228 326,-222 332,-216 338,-216 338,-216 421,-216 421,-216 427,-216 433,-222 433,-228 433,-228 433,-240 433,-240 433,-246 427,-252 421,-252"/>
<text text-anchor="middle" x="379.5" y="-231.5" font-family="sans" font-size="10.00">mothur_mapping_file</text>
</g>
<!-- 8&#45;&gt;1 -->
<g id="edge3" class="edge">
<title>8&#45;&gt;1</title>
<path fill="none" stroke="grey" stroke-width="2" d="M383.15,-215.8C386.22,-196.71 388.17,-165.75 374.5,-144 365.61,-129.85 351.52,-119.17 336.86,-111.25"/>
<polygon fill="grey" stroke="grey" stroke-width="2" points="338.2,-108.01 327.69,-106.67 335.07,-114.27 338.2,-108.01"/>
</g>
<!-- 11 -->
<g id="node12" class="node">
<title>11</title>
<path fill="none" stroke="#56a9d8" stroke-width="2" d="M353.5,-180C353.5,-180 279.5,-180 279.5,-180 273.5,-180 267.5,-174 267.5,-168 267.5,-168 267.5,-156 267.5,-156 267.5,-150 273.5,-144 279.5,-144 279.5,-144 353.5,-144 353.5,-144 359.5,-144 365.5,-150 365.5,-156 365.5,-156 365.5,-168 365.5,-168 365.5,-174 359.5,-180 353.5,-180"/>
<text text-anchor="middle" x="316.5" y="-159.5" font-family="sans" font-size="10.00">mothur_design_file</text>
</g>
<!-- 8&#45;&gt;11 -->
<g id="edge16" class="edge">
<title>8&#45;&gt;11</title>
<path fill="none" stroke="grey" stroke-width="2" d="M363.93,-215.7C356.3,-207.22 346.98,-196.86 338.62,-187.58"/>
<polygon fill="grey" stroke="grey" stroke-width="2" points="341.19,-185.2 331.89,-180.1 335.98,-189.88 341.19,-185.2"/>
</g>
<!-- 9 -->
<g id="node10" class="node">
<title>9</title>
<path fill="none" stroke="#567bd8" stroke-width="2" d="M413,-324C413,-324 346,-324 346,-324 340,-324 334,-318 334,-312 334,-312 334,-300 334,-300 334,-294 340,-288 346,-288 346,-288 413,-288 413,-288 419,-288 425,-294 425,-300 425,-300 425,-312 425,-312 425,-318 419,-324 413,-324"/>
<text text-anchor="middle" x="379.5" y="-303.5" font-family="sans" font-size="10.00">get_simple_stats</text>
</g>
<!-- 9&#45;&gt;8 -->
<g id="edge13" class="edge">
<title>9&#45;&gt;8</title>
<path fill="none" stroke="grey" stroke-width="2" d="M379.5,-287.7C379.5,-279.98 379.5,-270.71 379.5,-262.11"/>
<polygon fill="grey" stroke="grey" stroke-width="2" points="383,-262.1 379.5,-252.1 376,-262.1 383,-262.1"/>
</g>
<!-- 10&#45;&gt;0 -->
<g id="edge1" class="edge">
<title>10&#45;&gt;0</title>
<path fill="none" stroke="grey" stroke-width="2" d="M430.76,-359.94C482.09,-339.24 553.5,-298.95 553.5,-235 553.5,-235 553.5,-235 553.5,-161 553.5,-96.49 479.7,-53.69 433.3,-33.15"/>
<polygon fill="grey" stroke="grey" stroke-width="2" points="434.42,-29.83 423.85,-29.11 431.66,-36.26 434.42,-29.83"/>
</g>
<!-- 10&#45;&gt;9 -->
<g id="edge14" class="edge">
<title>10&#45;&gt;9</title>
<path fill="none" stroke="grey" stroke-width="2" d="M379.5,-359.7C379.5,-351.98 379.5,-342.71 379.5,-334.11"/>
<polygon fill="grey" stroke="grey" stroke-width="2" points="383,-334.1 379.5,-324.1 376,-334.1 383,-334.1"/>
</g>
<!-- 11&#45;&gt;1 -->
<g id="edge9" class="edge">
<title>11&#45;&gt;1</title>
<path fill="none" stroke="grey" stroke-width="2" d="M307.11,-143.7C302.74,-135.64 297.44,-125.89 292.6,-116.98"/>
<polygon fill="grey" stroke="grey" stroke-width="2" points="295.63,-115.22 287.79,-108.1 289.48,-118.56 295.63,-115.22"/>
</g>
</g>
</svg>
