<?xml version="1.0" encoding="UTF-8" standalone="no"?>
<!DOCTYPE svg PUBLIC "-//W3C//DTD SVG 1.1//EN"
 "http://www.w3.org/Graphics/SVG/1.1/DTD/svg11.dtd">
<!-- Generated by graphviz version 6.0.1 (0)
 -->
<!-- Title: snakemake_dag Pages: 1 -->
<svg width="750pt" height="332pt"
 viewBox="0.00 0.00 749.50 332.00" xmlns="http://www.w3.org/2000/svg" xmlns:xlink="http://www.w3.org/1999/xlink">
<g id="graph0" class="graph" transform="scale(1 1) rotate(0) translate(4 328)">
<title>snakemake_dag</title>
<polygon fill="white" stroke="none" points="-4,4 -4,-328 745.5,-328 745.5,4 -4,4"/>
<!-- 0 -->
<g id="node1" class="node">
<title>0</title>
<path fill="none" stroke="#56d882" stroke-width="2" d="M350,-36C350,-36 320,-36 320,-36 314,-36 308,-30 308,-24 308,-24 308,-12 308,-12 308,-6 314,0 320,0 320,0 350,0 350,0 356,0 362,-6 362,-12 362,-12 362,-24 362,-24 362,-30 356,-36 350,-36"/>
<text text-anchor="middle" x="335" y="-15.5" font-family="sans" font-size="10.00">all</text>
</g>
<!-- 1 -->
<g id="node2" class="node">
<title>1</title>
<path fill="none" stroke="#59d856" stroke-width="2" d="M384,-108C384,-108 286,-108 286,-108 280,-108 274,-102 274,-96 274,-96 274,-84 274,-84 274,-78 280,-72 286,-72 286,-72 384,-72 384,-72 390,-72 396,-78 396,-84 396,-84 396,-96 396,-96 396,-102 390,-108 384,-108"/>
<text text-anchor="middle" x="335" y="-87.5" font-family="sans" font-size="10.00">deploy_to_github_pages</text>
</g>
<!-- 1&#45;&gt;0 -->
<g id="edge1" class="edge">
<title>1&#45;&gt;0</title>
<path fill="none" stroke="grey" stroke-width="2" d="M335,-71.7C335,-63.98 335,-54.71 335,-46.11"/>
<polygon fill="grey" stroke="grey" stroke-width="2" points="338.5,-46.1 335,-36.1 331.5,-46.1 338.5,-46.1"/>
</g>
<!-- 2 -->
<g id="node3" class="node">
<title>2</title>
<path fill="none" stroke="#d88556" stroke-width="2" d="M56,-180C56,-180 12,-180 12,-180 6,-180 0,-174 0,-168 0,-168 0,-156 0,-156 0,-150 6,-144 12,-144 12,-144 56,-144 56,-144 62,-144 68,-150 68,-156 68,-156 68,-168 68,-168 68,-174 62,-180 56,-180"/>
<text text-anchor="middle" x="34" y="-159.5" font-family="sans" font-size="10.00">project_tree</text>
</g>
<!-- 2&#45;&gt;1 -->
<g id="edge3" class="edge">
<title>2&#45;&gt;1</title>
<path fill="none" stroke="grey" stroke-width="2" d="M68.08,-146.91C71.07,-145.86 74.08,-144.87 77,-144 139.04,-125.52 211.36,-111.27 263.62,-102.22"/>
<polygon fill="grey" stroke="grey" stroke-width="2" points="264.52,-105.62 273.79,-100.48 263.35,-98.72 264.52,-105.62"/>
</g>
<!-- 3 -->
<g id="node4" class="node">
<title>3</title>
<path fill="none" stroke="#5682d8" stroke-width="2" d="M200,-180C200,-180 98,-180 98,-180 92,-180 86,-174 86,-168 86,-168 86,-156 86,-156 86,-150 92,-144 98,-144 98,-144 200,-144 200,-144 206,-144 212,-150 212,-156 212,-156 212,-168 212,-168 212,-174 206,-180 200,-180"/>
<text text-anchor="middle" x="149" y="-159.5" font-family="sans" font-size="10.00">static_snakemake_report</text>
</g>
<!-- 3&#45;&gt;1 -->
<g id="edge7" class="edge">
<title>3&#45;&gt;1</title>
<path fill="none" stroke="grey" stroke-width="2" d="M194.5,-143.88C220.38,-134.14 252.97,-121.87 280.24,-111.61"/>
<polygon fill="grey" stroke="grey" stroke-width="2" points="281.52,-114.87 289.65,-108.07 279.06,-108.31 281.52,-114.87"/>
</g>
<!-- 4 -->
<g id="node5" class="node">
<title>4</title>
<path fill="none" stroke="#56a9d8" stroke-width="2" d="M309.5,-180C309.5,-180 242.5,-180 242.5,-180 236.5,-180 230.5,-174 230.5,-168 230.5,-168 230.5,-156 230.5,-156 230.5,-150 236.5,-144 242.5,-144 242.5,-144 309.5,-144 309.5,-144 315.5,-144 321.5,-150 321.5,-156 321.5,-156 321.5,-168 321.5,-168 321.5,-174 315.5,-180 309.5,-180"/>
<text text-anchor="middle" x="276" y="-159.5" font-family="sans" font-size="10.00">get_variable_freq</text>
</g>
<!-- 4&#45;&gt;1 -->
<g id="edge6" class="edge">
<title>4&#45;&gt;1</title>
<path fill="none" stroke="grey" stroke-width="2" d="M290.58,-143.7C297.66,-135.3 306.28,-125.07 314.05,-115.86"/>
<polygon fill="grey" stroke="grey" stroke-width="2" points="316.81,-118.01 320.58,-108.1 311.46,-113.49 316.81,-118.01"/>
</g>
<!-- 5 -->
<g id="node6" class="node">
<title>5</title>
<path fill="none" stroke="#56d8d8" stroke-width="2" d="M514,-252C514,-252 422,-252 422,-252 416,-252 410,-246 410,-240 410,-240 410,-228 410,-228 410,-222 416,-216 422,-216 422,-216 514,-216 514,-216 520,-216 526,-222 526,-228 526,-228 526,-240 526,-240 526,-246 520,-252 514,-252"/>
<text text-anchor="middle" x="468" y="-231.5" font-family="sans" font-size="10.00">process_sra_metadata</text>
</g>
<!-- 5&#45;&gt;4 -->
<g id="edge8" class="edge">
<title>5&#45;&gt;4</title>
<path fill="none" stroke="grey" stroke-width="2" d="M421.03,-215.88C394.02,-206.03 359.93,-193.6 331.59,-183.27"/>
<polygon fill="grey" stroke="grey" stroke-width="2" points="332.41,-179.84 321.82,-179.71 330.02,-186.42 332.41,-179.84"/>
</g>
<!-- 6 -->
<g id="node7" class="node">
<title>6</title>
<path fill="none" stroke="#d85656" stroke-width="2" d="M436,-180C436,-180 352,-180 352,-180 346,-180 340,-174 340,-168 340,-168 340,-156 340,-156 340,-150 346,-144 352,-144 352,-144 436,-144 436,-144 442,-144 448,-150 448,-156 448,-156 448,-168 448,-168 448,-174 442,-180 436,-180"/>
<text text-anchor="middle" x="394" y="-159.5" font-family="sans" font-size="10.00">plot_sampling_points</text>
</g>
<!-- 5&#45;&gt;6 -->
<g id="edge9" class="edge">
<title>5&#45;&gt;6</title>
<path fill="none" stroke="grey" stroke-width="2" d="M449.71,-215.7C440.57,-207.05 429.36,-196.45 419.4,-187.03"/>
<polygon fill="grey" stroke="grey" stroke-width="2" points="421.75,-184.43 412.08,-180.1 416.94,-189.52 421.75,-184.43"/>
</g>
<!-- 7 -->
<g id="node8" class="node">
<title>7</title>
<path fill="none" stroke="#80d856" stroke-width="2" d="M668.5,-180C668.5,-180 591.5,-180 591.5,-180 585.5,-180 579.5,-174 579.5,-168 579.5,-168 579.5,-156 579.5,-156 579.5,-150 585.5,-144 591.5,-144 591.5,-144 668.5,-144 668.5,-144 674.5,-144 680.5,-150 680.5,-156 680.5,-156 680.5,-168 680.5,-168 680.5,-174 674.5,-180 668.5,-180"/>
<text text-anchor="middle" x="630" y="-159.5" font-family="sans" font-size="10.00">extract_accessions</text>
</g>
<!-- 5&#45;&gt;7 -->
<g id="edge12" class="edge">
<title>5&#45;&gt;7</title>
<path fill="none" stroke="grey" stroke-width="2" d="M507.63,-215.88C529.78,-206.31 557.56,-194.3 581.06,-184.15"/>
<polygon fill="grey" stroke="grey" stroke-width="2" points="582.71,-187.25 590.5,-180.07 579.93,-180.82 582.71,-187.25"/>
</g>
<!-- 10 -->
<g id="node11" class="node">
<title>10</title>
<path fill="none" stroke="#56d8a9" stroke-width="2" d="M549.5,-180C549.5,-180 478.5,-180 478.5,-180 472.5,-180 466.5,-174 466.5,-168 466.5,-168 466.5,-156 466.5,-156 466.5,-150 472.5,-144 478.5,-144 478.5,-144 549.5,-144 549.5,-144 555.5,-144 561.5,-150 561.5,-156 561.5,-156 561.5,-168 561.5,-168 561.5,-174 555.5,-180 549.5,-180"/>
<text text-anchor="middle" x="514" y="-159.5" font-family="sans" font-size="10.00">explore_read_size</text>
</g>
<!-- 5&#45;&gt;10 -->
<g id="edge14" class="edge">
<title>5&#45;&gt;10</title>
<path fill="none" stroke="grey" stroke-width="2" d="M479.37,-215.7C484.72,-207.56 491.2,-197.69 497.11,-188.7"/>
<polygon fill="grey" stroke="grey" stroke-width="2" points="500.19,-190.38 502.76,-180.1 494.34,-186.54 500.19,-190.38"/>
</g>
<!-- 6&#45;&gt;1 -->
<g id="edge2" class="edge">
<title>6&#45;&gt;1</title>
<path fill="none" stroke="grey" stroke-width="2" d="M379.42,-143.7C372.34,-135.3 363.72,-125.07 355.95,-115.86"/>
<polygon fill="grey" stroke="grey" stroke-width="2" points="358.54,-113.49 349.42,-108.1 353.19,-118.01 358.54,-113.49"/>
</g>
<!-- 7&#45;&gt;1 -->
<g id="edge4" class="edge">
<title>7&#45;&gt;1</title>
<path fill="none" stroke="grey" stroke-width="2" d="M579.31,-146.43C576.17,-145.59 573.04,-144.77 570,-144 515.24,-130.08 452.84,-116.09 406.11,-105.98"/>
<polygon fill="grey" stroke="grey" stroke-width="2" points="406.59,-102.51 396.08,-103.82 405.12,-109.35 406.59,-102.51"/>
</g>
<!-- 8 -->
<g id="node9" class="node">
<title>8</title>
<path fill="none" stroke="#d8ac56" stroke-width="2" d="M663,-324C663,-324 595,-324 595,-324 589,-324 583,-318 583,-312 583,-312 583,-300 583,-300 583,-294 589,-288 595,-288 595,-288 663,-288 663,-288 669,-288 675,-294 675,-300 675,-300 675,-312 675,-312 675,-318 669,-324 663,-324"/>
<text text-anchor="middle" x="629" y="-303.5" font-family="sans" font-size="10.00">fetch_sra_runinfo</text>
</g>
<!-- 8&#45;&gt;7 -->
<g id="edge10" class="edge">
<title>8&#45;&gt;7</title>
<path fill="none" stroke="grey" stroke-width="2" d="M617.11,-287.72C610.99,-277.76 604.16,-264.73 601,-252 597.15,-236.47 597.04,-231.5 601,-216 603.38,-206.7 607.76,-197.27 612.42,-189"/>
<polygon fill="grey" stroke="grey" stroke-width="2" points="615.54,-190.59 617.69,-180.22 609.54,-186.99 615.54,-190.59"/>
</g>
<!-- 9 -->
<g id="node10" class="node">
<title>9</title>
<path fill="none" stroke="#afd856" stroke-width="2" d="M729.5,-252C729.5,-252 622.5,-252 622.5,-252 616.5,-252 610.5,-246 610.5,-240 610.5,-240 610.5,-228 610.5,-228 610.5,-222 616.5,-216 622.5,-216 622.5,-216 729.5,-216 729.5,-216 735.5,-216 741.5,-222 741.5,-228 741.5,-228 741.5,-240 741.5,-240 741.5,-246 735.5,-252 729.5,-252"/>
<text text-anchor="middle" x="676" y="-231.5" font-family="sans" font-size="10.00">merge_runselector_runinfo</text>
</g>
<!-- 8&#45;&gt;9 -->
<g id="edge13" class="edge">
<title>8&#45;&gt;9</title>
<path fill="none" stroke="grey" stroke-width="2" d="M640.62,-287.7C646.14,-279.47 652.85,-269.48 658.93,-260.42"/>
<polygon fill="grey" stroke="grey" stroke-width="2" points="661.85,-262.36 664.52,-252.1 656.04,-258.46 661.85,-262.36"/>
</g>
<!-- 9&#45;&gt;7 -->
<g id="edge11" class="edge">
<title>9&#45;&gt;7</title>
<path fill="none" stroke="grey" stroke-width="2" d="M664.63,-215.7C659.28,-207.56 652.8,-197.69 646.89,-188.7"/>
<polygon fill="grey" stroke="grey" stroke-width="2" points="649.66,-186.54 641.24,-180.1 643.81,-190.38 649.66,-186.54"/>
</g>
<!-- 10&#45;&gt;1 -->
<g id="edge5" class="edge">
<title>10&#45;&gt;1</title>
<path fill="none" stroke="grey" stroke-width="2" d="M470.21,-143.88C445.42,-134.18 414.22,-121.98 388.04,-111.74"/>
<polygon fill="grey" stroke="grey" stroke-width="2" points="389.23,-108.45 378.65,-108.07 386.68,-114.97 389.23,-108.45"/>
</g>
</g>
</svg>
