<?xml version="1.0" encoding="UTF-8" standalone="no"?>
<!DOCTYPE svg PUBLIC "-//W3C//DTD SVG 1.1//EN"
 "http://www.w3.org/Graphics/SVG/1.1/DTD/svg11.dtd">
<!-- Generated by graphviz version 6.0.1 (0)
 -->
<!-- Title: snakemake_dag Pages: 1 -->
<svg width="859pt" height="332pt"
 viewBox="0.00 0.00 859.00 332.00" xmlns="http://www.w3.org/2000/svg" xmlns:xlink="http://www.w3.org/1999/xlink">
<g id="graph0" class="graph" transform="scale(1 1) rotate(0) translate(4 328)">
<title>snakemake_dag</title>
<polygon fill="white" stroke="none" points="-4,4 -4,-328 855,-328 855,4 -4,4"/>
<!-- 0 -->
<g id="node1" class="node">
<title>0</title>
<path fill="none" stroke="#d88556" stroke-width="2" d="M156.5,-36C156.5,-36 126.5,-36 126.5,-36 120.5,-36 114.5,-30 114.5,-24 114.5,-24 114.5,-12 114.5,-12 114.5,-6 120.5,0 126.5,0 126.5,0 156.5,0 156.5,0 162.5,0 168.5,-6 168.5,-12 168.5,-12 168.5,-24 168.5,-24 168.5,-30 162.5,-36 156.5,-36"/>
<text text-anchor="middle" x="141.5" y="-15.5" font-family="sans" font-size="10.00">all</text>
</g>
<!-- 1 -->
<g id="node2" class="node">
<title>1</title>
<path fill="none" stroke="#afd856" stroke-width="2" d="M99,-108C99,-108 12,-108 12,-108 6,-108 0,-102 0,-96 0,-96 0,-84 0,-84 0,-78 6,-72 12,-72 12,-72 99,-72 99,-72 105,-72 111,-78 111,-84 111,-84 111,-96 111,-96 111,-102 105,-108 99,-108"/>
<text text-anchor="middle" x="55.5" y="-87.5" font-family="sans" font-size="10.00">user_optional_filtering</text>
</g>
<!-- 1&#45;&gt;0 -->
<g id="edge3" class="edge">
<title>1&#45;&gt;0</title>
<path fill="none" stroke="grey" stroke-width="2" d="M76.76,-71.7C87.59,-62.88 100.92,-52.03 112.66,-42.47"/>
<polygon fill="grey" stroke="grey" stroke-width="2" points="114.94,-45.13 120.49,-36.1 110.52,-39.7 114.94,-45.13"/>
</g>
<!-- 2 -->
<g id="node3" class="node">
<title>2</title>
<path fill="none" stroke="#5682d8" stroke-width="2" d="M178.5,-324C178.5,-324 110.5,-324 110.5,-324 104.5,-324 98.5,-318 98.5,-312 98.5,-312 98.5,-300 98.5,-300 98.5,-294 104.5,-288 110.5,-288 110.5,-288 178.5,-288 178.5,-288 184.5,-288 190.5,-294 190.5,-300 190.5,-300 190.5,-312 190.5,-312 190.5,-318 184.5,-324 178.5,-324"/>
<text text-anchor="middle" x="144.5" y="-303.5" font-family="sans" font-size="10.00">fetch_sra_runinfo</text>
</g>
<!-- 2&#45;&gt;1 -->
<g id="edge4" class="edge">
<title>2&#45;&gt;1</title>
<path fill="none" stroke="grey" stroke-width="2" d="M107.66,-287.79C93.31,-279.13 78.23,-267.21 69.5,-252 45.55,-210.28 47.4,-152.23 51.23,-118.44"/>
<polygon fill="grey" stroke="grey" stroke-width="2" points="54.73,-118.73 52.52,-108.37 47.78,-117.84 54.73,-118.73"/>
</g>
<!-- 3 -->
<g id="node4" class="node">
<title>3</title>
<path fill="none" stroke="#80d856" stroke-width="2" d="M198,-252C198,-252 91,-252 91,-252 85,-252 79,-246 79,-240 79,-240 79,-228 79,-228 79,-222 85,-216 91,-216 91,-216 198,-216 198,-216 204,-216 210,-222 210,-228 210,-228 210,-240 210,-240 210,-246 204,-252 198,-252"/>
<text text-anchor="middle" x="144.5" y="-231.5" font-family="sans" font-size="10.00">merge_runselector_runinfo</text>
</g>
<!-- 2&#45;&gt;3 -->
<g id="edge5" class="edge">
<title>2&#45;&gt;3</title>
<path fill="none" stroke="grey" stroke-width="2" d="M144.5,-287.7C144.5,-279.98 144.5,-270.71 144.5,-262.11"/>
<polygon fill="grey" stroke="grey" stroke-width="2" points="148,-262.1 144.5,-252.1 141,-262.1 148,-262.1"/>
</g>
<!-- 10 -->
<g id="node11" class="node">
<title>10</title>
<path fill="none" stroke="#d6d856" stroke-width="2" d="M259,-180C259,-180 182,-180 182,-180 176,-180 170,-174 170,-168 170,-168 170,-156 170,-156 170,-150 176,-144 182,-144 182,-144 259,-144 259,-144 265,-144 271,-150 271,-156 271,-156 271,-168 271,-168 271,-174 265,-180 259,-180"/>
<text text-anchor="middle" x="220.5" y="-159.5" font-family="sans" font-size="10.00">extract_accessions</text>
</g>
<!-- 2&#45;&gt;10 -->
<g id="edge16" class="edge">
<title>2&#45;&gt;10</title>
<path fill="none" stroke="grey" stroke-width="2" d="M181.33,-287.95C195.58,-279.32 210.38,-267.37 218.5,-252 228.45,-233.15 228.26,-208.78 225.97,-190.3"/>
<polygon fill="grey" stroke="grey" stroke-width="2" points="229.4,-189.56 224.44,-180.19 222.47,-190.61 229.4,-189.56"/>
</g>
<!-- 3&#45;&gt;0 -->
<g id="edge1" class="edge">
<title>3&#45;&gt;0</title>
<path fill="none" stroke="grey" stroke-width="2" d="M144.26,-215.85C143.74,-178.83 142.51,-91.18 141.88,-46.39"/>
<polygon fill="grey" stroke="grey" stroke-width="2" points="145.38,-46.18 141.74,-36.23 138.38,-46.28 145.38,-46.18"/>
</g>
<!-- 3&#45;&gt;10 -->
<g id="edge14" class="edge">
<title>3&#45;&gt;10</title>
<path fill="none" stroke="grey" stroke-width="2" d="M163.29,-215.7C172.67,-207.05 184.18,-196.45 194.41,-187.03"/>
<polygon fill="grey" stroke="grey" stroke-width="2" points="196.95,-189.45 201.93,-180.1 192.2,-184.3 196.95,-189.45"/>
</g>
<!-- 4 -->
<g id="node5" class="node">
<title>4</title>
<path fill="none" stroke="#d8ac56" stroke-width="2" d="M487.5,-108C487.5,-108 389.5,-108 389.5,-108 383.5,-108 377.5,-102 377.5,-96 377.5,-96 377.5,-84 377.5,-84 377.5,-78 383.5,-72 389.5,-72 389.5,-72 487.5,-72 487.5,-72 493.5,-72 499.5,-78 499.5,-84 499.5,-84 499.5,-96 499.5,-96 499.5,-102 493.5,-108 487.5,-108"/>
<text text-anchor="middle" x="438.5" y="-87.5" font-family="sans" font-size="10.00">deploy_to_github_pages</text>
</g>
<!-- 4&#45;&gt;0 -->
<g id="edge2" class="edge">
<title>4&#45;&gt;0</title>
<path fill="none" stroke="grey" stroke-width="2" d="M377.32,-74.58C317.55,-60.49 228.52,-39.51 178.7,-27.77"/>
<polygon fill="grey" stroke="grey" stroke-width="2" points="179.22,-24.3 168.69,-25.41 177.62,-31.11 179.22,-24.3"/>
</g>
<!-- 5 -->
<g id="node6" class="node">
<title>5</title>
<path fill="none" stroke="#56d882" stroke-width="2" d="M345.5,-180C345.5,-180 301.5,-180 301.5,-180 295.5,-180 289.5,-174 289.5,-168 289.5,-168 289.5,-156 289.5,-156 289.5,-150 295.5,-144 301.5,-144 301.5,-144 345.5,-144 345.5,-144 351.5,-144 357.5,-150 357.5,-156 357.5,-156 357.5,-168 357.5,-168 357.5,-174 351.5,-180 345.5,-180"/>
<text text-anchor="middle" x="323.5" y="-159.5" font-family="sans" font-size="10.00">project_tree</text>
</g>
<!-- 5&#45;&gt;4 -->
<g id="edge9" class="edge">
<title>5&#45;&gt;4</title>
<path fill="none" stroke="grey" stroke-width="2" d="M351.63,-143.88C366.67,-134.72 385.37,-123.34 401.56,-113.48"/>
<polygon fill="grey" stroke="grey" stroke-width="2" points="403.54,-116.38 410.26,-108.19 399.9,-110.4 403.54,-116.38"/>
</g>
<!-- 6 -->
<g id="node7" class="node">
<title>6</title>
<path fill="none" stroke="#56d8a9" stroke-width="2" d="M489.5,-180C489.5,-180 387.5,-180 387.5,-180 381.5,-180 375.5,-174 375.5,-168 375.5,-168 375.5,-156 375.5,-156 375.5,-150 381.5,-144 387.5,-144 387.5,-144 489.5,-144 489.5,-144 495.5,-144 501.5,-150 501.5,-156 501.5,-156 501.5,-168 501.5,-168 501.5,-174 495.5,-180 489.5,-180"/>
<text text-anchor="middle" x="438.5" y="-159.5" font-family="sans" font-size="10.00">static_snakemake_report</text>
</g>
<!-- 6&#45;&gt;4 -->
<g id="edge10" class="edge">
<title>6&#45;&gt;4</title>
<path fill="none" stroke="grey" stroke-width="2" d="M438.5,-143.7C438.5,-135.98 438.5,-126.71 438.5,-118.11"/>
<polygon fill="grey" stroke="grey" stroke-width="2" points="442,-118.1 438.5,-108.1 435,-118.1 442,-118.1"/>
</g>
<!-- 7 -->
<g id="node8" class="node">
<title>7</title>
<path fill="none" stroke="#56d8d8" stroke-width="2" d="M599,-180C599,-180 532,-180 532,-180 526,-180 520,-174 520,-168 520,-168 520,-156 520,-156 520,-150 526,-144 532,-144 532,-144 599,-144 599,-144 605,-144 611,-150 611,-156 611,-156 611,-168 611,-168 611,-174 605,-180 599,-180"/>
<text text-anchor="middle" x="565.5" y="-159.5" font-family="sans" font-size="10.00">get_variable_freq</text>
</g>
<!-- 7&#45;&gt;4 -->
<g id="edge8" class="edge">
<title>7&#45;&gt;4</title>
<path fill="none" stroke="grey" stroke-width="2" d="M534.43,-143.88C517.67,-134.64 496.79,-123.13 478.8,-113.21"/>
<polygon fill="grey" stroke="grey" stroke-width="2" points="480.13,-109.95 469.69,-108.19 476.76,-116.08 480.13,-109.95"/>
</g>
<!-- 8 -->
<g id="node9" class="node">
<title>8</title>
<path fill="none" stroke="#59d856" stroke-width="2" d="M670.5,-252C670.5,-252 578.5,-252 578.5,-252 572.5,-252 566.5,-246 566.5,-240 566.5,-240 566.5,-228 566.5,-228 566.5,-222 572.5,-216 578.5,-216 578.5,-216 670.5,-216 670.5,-216 676.5,-216 682.5,-222 682.5,-228 682.5,-228 682.5,-240 682.5,-240 682.5,-246 676.5,-252 670.5,-252"/>
<text text-anchor="middle" x="624.5" y="-231.5" font-family="sans" font-size="10.00">process_sra_metadata</text>
</g>
<!-- 8&#45;&gt;7 -->
<g id="edge12" class="edge">
<title>8&#45;&gt;7</title>
<path fill="none" stroke="grey" stroke-width="2" d="M609.92,-215.7C602.84,-207.3 594.22,-197.07 586.45,-187.86"/>
<polygon fill="grey" stroke="grey" stroke-width="2" points="589.04,-185.49 579.92,-180.1 583.69,-190.01 589.04,-185.49"/>
</g>
<!-- 9 -->
<g id="node10" class="node">
<title>9</title>
<path fill="none" stroke="#d85656" stroke-width="2" d="M725.5,-180C725.5,-180 641.5,-180 641.5,-180 635.5,-180 629.5,-174 629.5,-168 629.5,-168 629.5,-156 629.5,-156 629.5,-150 635.5,-144 641.5,-144 641.5,-144 725.5,-144 725.5,-144 731.5,-144 737.5,-150 737.5,-156 737.5,-156 737.5,-168 737.5,-168 737.5,-174 731.5,-180 725.5,-180"/>
<text text-anchor="middle" x="683.5" y="-159.5" font-family="sans" font-size="10.00">plot_sampling_points</text>
</g>
<!-- 8&#45;&gt;9 -->
<g id="edge13" class="edge">
<title>8&#45;&gt;9</title>
<path fill="none" stroke="grey" stroke-width="2" d="M639.08,-215.7C646.16,-207.3 654.78,-197.07 662.55,-187.86"/>
<polygon fill="grey" stroke="grey" stroke-width="2" points="665.31,-190.01 669.08,-180.1 659.96,-185.49 665.31,-190.01"/>
</g>
<!-- 8&#45;&gt;10 -->
<g id="edge15" class="edge">
<title>8&#45;&gt;10</title>
<path fill="none" stroke="grey" stroke-width="2" d="M566.28,-226.25C499.62,-218.03 387.06,-202.64 281.04,-179.96"/>
<polygon fill="grey" stroke="grey" stroke-width="2" points="281.64,-176.51 271.13,-177.82 280.16,-183.36 281.64,-176.51"/>
</g>
<!-- 11 -->
<g id="node12" class="node">
<title>11</title>
<path fill="none" stroke="#56a9d8" stroke-width="2" d="M839,-180C839,-180 768,-180 768,-180 762,-180 756,-174 756,-168 756,-168 756,-156 756,-156 756,-150 762,-144 768,-144 768,-144 839,-144 839,-144 845,-144 851,-150 851,-156 851,-156 851,-168 851,-168 851,-174 845,-180 839,-180"/>
<text text-anchor="middle" x="803.5" y="-159.5" font-family="sans" font-size="10.00">explore_read_size</text>
</g>
<!-- 8&#45;&gt;11 -->
<g id="edge17" class="edge">
<title>8&#45;&gt;11</title>
<path fill="none" stroke="grey" stroke-width="2" d="M668.29,-215.88C693.08,-206.18 724.28,-193.98 750.46,-183.74"/>
<polygon fill="grey" stroke="grey" stroke-width="2" points="751.82,-186.97 759.85,-180.07 749.27,-180.45 751.82,-186.97"/>
</g>
<!-- 9&#45;&gt;4 -->
<g id="edge6" class="edge">
<title>9&#45;&gt;4</title>
<path fill="none" stroke="grey" stroke-width="2" d="M629.43,-145.55C593.73,-135.35 546.61,-121.89 508.11,-110.89"/>
<polygon fill="grey" stroke="grey" stroke-width="2" points="508.59,-107.38 498.01,-108 506.66,-114.12 508.59,-107.38"/>
</g>
<!-- 10&#45;&gt;4 -->
<g id="edge7" class="edge">
<title>10&#45;&gt;4</title>
<path fill="none" stroke="grey" stroke-width="2" d="M271.06,-144.76C302.31,-134.73 342.67,-121.77 375.93,-111.09"/>
<polygon fill="grey" stroke="grey" stroke-width="2" points="377.1,-114.39 385.55,-108 374.96,-107.73 377.1,-114.39"/>
</g>
<!-- 11&#45;&gt;4 -->
<g id="edge11" class="edge">
<title>11&#45;&gt;4</title>
<path fill="none" stroke="grey" stroke-width="2" d="M755.72,-146.3C752.61,-145.48 749.52,-144.71 746.5,-144 666.18,-125.18 572.63,-110.02 509.89,-100.81"/>
<polygon fill="grey" stroke="grey" stroke-width="2" points="510.11,-97.31 499.71,-99.33 509.1,-104.24 510.11,-97.31"/>
</g>
</g>
</svg>
