<?xml version="1.0" encoding="UTF-8" standalone="no"?>
<!DOCTYPE svg PUBLIC "-//W3C//DTD SVG 1.1//EN"
 "http://www.w3.org/Graphics/SVG/1.1/DTD/svg11.dtd">
<!-- Generated by graphviz version 6.0.1 (0)
 -->
<!-- Title: snakemake_dag Pages: 1 -->
<svg width="301pt" height="260pt"
 viewBox="0.00 0.00 300.50 260.00" xmlns="http://www.w3.org/2000/svg" xmlns:xlink="http://www.w3.org/1999/xlink">
<g id="graph0" class="graph" transform="scale(1 1) rotate(0) translate(4 256)">
<title>snakemake_dag</title>
<polygon fill="white" stroke="none" points="-4,4 -4,-256 296.5,-256 296.5,4 -4,4"/>
<!-- 0 -->
<g id="node1" class="node">
<title>0</title>
<path fill="none" stroke="#d89556" stroke-width="2" d="M154.5,-36C154.5,-36 124.5,-36 124.5,-36 118.5,-36 112.5,-30 112.5,-24 112.5,-24 112.5,-12 112.5,-12 112.5,-6 118.5,0 124.5,0 124.5,0 154.5,0 154.5,0 160.5,0 166.5,-6 166.5,-12 166.5,-12 166.5,-24 166.5,-24 166.5,-30 160.5,-36 154.5,-36"/>
<text text-anchor="middle" x="139.5" y="-15.5" font-family="sans" font-size="10.00">all</text>
</g>
<!-- 1 -->
<g id="node2" class="node">
<title>1</title>
<path fill="none" stroke="#97d856" stroke-width="2" d="M176.5,-108C176.5,-108 102.5,-108 102.5,-108 96.5,-108 90.5,-102 90.5,-96 90.5,-96 90.5,-84 90.5,-84 90.5,-78 96.5,-72 102.5,-72 102.5,-72 176.5,-72 176.5,-72 182.5,-72 188.5,-78 188.5,-84 188.5,-84 188.5,-96 188.5,-96 188.5,-102 182.5,-108 176.5,-108"/>
<text text-anchor="middle" x="139.5" y="-87.5" font-family="sans" font-size="10.00">github_page_index</text>
</g>
<!-- 1&#45;&gt;0 -->
<g id="edge1" class="edge">
<title>1&#45;&gt;0</title>
<path fill="none" stroke="grey" stroke-width="2" d="M139.5,-71.7C139.5,-63.98 139.5,-54.71 139.5,-46.11"/>
<polygon fill="grey" stroke="grey" stroke-width="2" points="143,-46.1 139.5,-36.1 136,-46.1 143,-46.1"/>
</g>
<!-- 2 -->
<g id="node3" class="node">
<title>2</title>
<path fill="none" stroke="#56d89a" stroke-width="2" d="M63,-180C63,-180 12,-180 12,-180 6,-180 0,-174 0,-168 0,-168 0,-156 0,-156 0,-150 6,-144 12,-144 12,-144 63,-144 63,-144 69,-144 75,-150 75,-156 75,-156 75,-168 75,-168 75,-174 69,-180 63,-180"/>
<text text-anchor="middle" x="37.5" y="-159.5" font-family="sans" font-size="10.00">get_rulegraph</text>
</g>
<!-- 2&#45;&gt;1 -->
<g id="edge4" class="edge">
<title>2&#45;&gt;1</title>
<path fill="none" stroke="grey" stroke-width="2" d="M62.45,-143.88C75.54,-134.89 91.76,-123.76 105.94,-114.03"/>
<polygon fill="grey" stroke="grey" stroke-width="2" points="108.19,-116.73 114.45,-108.19 104.23,-110.96 108.19,-116.73"/>
</g>
<!-- 3 -->
<g id="node4" class="node">
<title>3</title>
<path fill="none" stroke="#d85656" stroke-width="2" d="M174,-180C174,-180 105,-180 105,-180 99,-180 93,-174 93,-168 93,-168 93,-156 93,-156 93,-150 99,-144 105,-144 105,-144 174,-144 174,-144 180,-144 186,-150 186,-156 186,-156 186,-168 186,-168 186,-174 180,-180 174,-180"/>
<text text-anchor="middle" x="139.5" y="-159.5" font-family="sans" font-size="10.00">plot_variable_freq</text>
</g>
<!-- 3&#45;&gt;1 -->
<g id="edge2" class="edge">
<title>3&#45;&gt;1</title>
<path fill="none" stroke="grey" stroke-width="2" d="M139.5,-143.7C139.5,-135.98 139.5,-126.71 139.5,-118.11"/>
<polygon fill="grey" stroke="grey" stroke-width="2" points="143,-118.1 139.5,-108.1 136,-118.1 143,-118.1"/>
</g>
<!-- 4 -->
<g id="node5" class="node">
<title>4</title>
<path fill="none" stroke="#569ad8" stroke-width="2" d="M229,-252C229,-252 158,-252 158,-252 152,-252 146,-246 146,-240 146,-240 146,-228 146,-228 146,-222 152,-216 158,-216 158,-216 229,-216 229,-216 235,-216 241,-222 241,-228 241,-228 241,-240 241,-240 241,-246 235,-252 229,-252"/>
<text text-anchor="middle" x="193.5" y="-231.5" font-family="sans" font-size="10.00">get_sra_metadata</text>
</g>
<!-- 4&#45;&gt;3 -->
<g id="edge5" class="edge">
<title>4&#45;&gt;3</title>
<path fill="none" stroke="grey" stroke-width="2" d="M180.15,-215.7C173.74,-207.39 165.94,-197.28 158.89,-188.14"/>
<polygon fill="grey" stroke="grey" stroke-width="2" points="161.57,-185.88 152.69,-180.1 156.03,-190.16 161.57,-185.88"/>
</g>
<!-- 5 -->
<g id="node6" class="node">
<title>5</title>
<path fill="none" stroke="#d6d856" stroke-width="2" d="M280.5,-180C280.5,-180 216.5,-180 216.5,-180 210.5,-180 204.5,-174 204.5,-168 204.5,-168 204.5,-156 204.5,-156 204.5,-150 210.5,-144 216.5,-144 216.5,-144 280.5,-144 280.5,-144 286.5,-144 292.5,-150 292.5,-156 292.5,-156 292.5,-168 292.5,-168 292.5,-174 286.5,-180 280.5,-180"/>
<text text-anchor="middle" x="248.5" y="-159.5" font-family="sans" font-size="10.00">get_sample_gps</text>
</g>
<!-- 4&#45;&gt;5 -->
<g id="edge6" class="edge">
<title>4&#45;&gt;5</title>
<path fill="none" stroke="grey" stroke-width="2" d="M207.1,-215.7C213.62,-207.39 221.57,-197.28 228.75,-188.14"/>
<polygon fill="grey" stroke="grey" stroke-width="2" points="231.63,-190.13 235.06,-180.1 226.13,-185.81 231.63,-190.13"/>
</g>
<!-- 5&#45;&gt;1 -->
<g id="edge3" class="edge">
<title>5&#45;&gt;1</title>
<path fill="none" stroke="grey" stroke-width="2" d="M221.84,-143.88C207.72,-134.81 190.19,-123.55 174.94,-113.76"/>
<polygon fill="grey" stroke="grey" stroke-width="2" points="176.57,-110.65 166.27,-108.19 172.79,-116.54 176.57,-110.65"/>
</g>
</g>
</svg>
