<?xml version="1.0" encoding="UTF-8" standalone="no"?>
<!DOCTYPE svg PUBLIC "-//W3C//DTD SVG 1.1//EN"
 "http://www.w3.org/Graphics/SVG/1.1/DTD/svg11.dtd">
<!-- Generated by graphviz version 6.0.1 (0)
 -->
<!-- Title: snakemake_dag Pages: 1 -->
<svg width="569pt" height="260pt"
 viewBox="0.00 0.00 568.50 260.00" xmlns="http://www.w3.org/2000/svg" xmlns:xlink="http://www.w3.org/1999/xlink">
<g id="graph0" class="graph" transform="scale(1 1) rotate(0) translate(4 256)">
<title>snakemake_dag</title>
<polygon fill="white" stroke="none" points="-4,4 -4,-256 564.5,-256 564.5,4 -4,4"/>
<!-- 0 -->
<g id="node1" class="node">
<title>0</title>
<path fill="none" stroke="#d6d856" stroke-width="2" d="M299,-36C299,-36 269,-36 269,-36 263,-36 257,-30 257,-24 257,-24 257,-12 257,-12 257,-6 263,0 269,0 269,0 299,0 299,0 305,0 311,-6 311,-12 311,-12 311,-24 311,-24 311,-30 305,-36 299,-36"/>
<text text-anchor="middle" x="284" y="-15.5" font-family="sans" font-size="10.00">all</text>
</g>
<!-- 1 -->
<g id="node2" class="node">
<title>1</title>
<path fill="none" stroke="#56d8a9" stroke-width="2" d="M333,-108C333,-108 235,-108 235,-108 229,-108 223,-102 223,-96 223,-96 223,-84 223,-84 223,-78 229,-72 235,-72 235,-72 333,-72 333,-72 339,-72 345,-78 345,-84 345,-84 345,-96 345,-96 345,-102 339,-108 333,-108"/>
<text text-anchor="middle" x="284" y="-87.5" font-family="sans" font-size="10.00">deploy_to_github_pages</text>
</g>
<!-- 1&#45;&gt;0 -->
<g id="edge1" class="edge">
<title>1&#45;&gt;0</title>
<path fill="none" stroke="grey" stroke-width="2" d="M284,-71.7C284,-63.98 284,-54.71 284,-46.11"/>
<polygon fill="grey" stroke="grey" stroke-width="2" points="287.5,-46.1 284,-36.1 280.5,-46.1 287.5,-46.1"/>
</g>
<!-- 2 -->
<g id="node3" class="node">
<title>2</title>
<path fill="none" stroke="#80d856" stroke-width="2" d="M56,-180C56,-180 12,-180 12,-180 6,-180 0,-174 0,-168 0,-168 0,-156 0,-156 0,-150 6,-144 12,-144 12,-144 56,-144 56,-144 62,-144 68,-150 68,-156 68,-156 68,-168 68,-168 68,-174 62,-180 56,-180"/>
<text text-anchor="middle" x="34" y="-159.5" font-family="sans" font-size="10.00">project_tree</text>
</g>
<!-- 2&#45;&gt;1 -->
<g id="edge4" class="edge">
<title>2&#45;&gt;1</title>
<path fill="none" stroke="grey" stroke-width="2" d="M68.13,-147.06C71.11,-145.98 74.1,-144.94 77,-144 121.57,-129.55 172.54,-116.46 212.76,-106.9"/>
<polygon fill="grey" stroke="grey" stroke-width="2" points="213.81,-110.25 222.74,-104.55 212.2,-103.43 213.81,-110.25"/>
</g>
<!-- 3 -->
<g id="node4" class="node">
<title>3</title>
<path fill="none" stroke="#5682d8" stroke-width="2" d="M200,-180C200,-180 98,-180 98,-180 92,-180 86,-174 86,-168 86,-168 86,-156 86,-156 86,-150 92,-144 98,-144 98,-144 200,-144 200,-144 206,-144 212,-150 212,-156 212,-156 212,-168 212,-168 212,-174 206,-180 200,-180"/>
<text text-anchor="middle" x="149" y="-159.5" font-family="sans" font-size="10.00">static_snakemake_report</text>
</g>
<!-- 3&#45;&gt;1 -->
<g id="edge6" class="edge">
<title>3&#45;&gt;1</title>
<path fill="none" stroke="grey" stroke-width="2" d="M182.02,-143.88C200.08,-134.51 222.65,-122.81 241.95,-112.8"/>
<polygon fill="grey" stroke="grey" stroke-width="2" points="243.58,-115.9 250.85,-108.19 240.36,-109.69 243.58,-115.9"/>
</g>
<!-- 4 -->
<g id="node5" class="node">
<title>4</title>
<path fill="none" stroke="#d88556" stroke-width="2" d="M326,-180C326,-180 242,-180 242,-180 236,-180 230,-174 230,-168 230,-168 230,-156 230,-156 230,-150 236,-144 242,-144 242,-144 326,-144 326,-144 332,-144 338,-150 338,-156 338,-156 338,-168 338,-168 338,-174 332,-180 326,-180"/>
<text text-anchor="middle" x="284" y="-159.5" font-family="sans" font-size="10.00">plot_sampling_points</text>
</g>
<!-- 4&#45;&gt;1 -->
<g id="edge2" class="edge">
<title>4&#45;&gt;1</title>
<path fill="none" stroke="grey" stroke-width="2" d="M284,-143.7C284,-135.98 284,-126.71 284,-118.11"/>
<polygon fill="grey" stroke="grey" stroke-width="2" points="287.5,-118.1 284,-108.1 280.5,-118.1 287.5,-118.1"/>
</g>
<!-- 5 -->
<g id="node6" class="node">
<title>5</title>
<path fill="none" stroke="#56a9d8" stroke-width="2" d="M440,-252C440,-252 364,-252 364,-252 358,-252 352,-246 352,-240 352,-240 352,-228 352,-228 352,-222 358,-216 364,-216 364,-216 440,-216 440,-216 446,-216 452,-222 452,-228 452,-228 452,-240 452,-240 452,-246 446,-252 440,-252"/>
<text text-anchor="middle" x="402" y="-231.5" font-family="sans" font-size="10.00">get_user_metadata</text>
</g>
<!-- 5&#45;&gt;4 -->
<g id="edge7" class="edge">
<title>5&#45;&gt;4</title>
<path fill="none" stroke="grey" stroke-width="2" d="M373.13,-215.88C357.71,-206.72 338.52,-195.34 321.9,-185.48"/>
<polygon fill="grey" stroke="grey" stroke-width="2" points="323.36,-182.28 312.98,-180.19 319.79,-188.3 323.36,-182.28"/>
</g>
<!-- 6 -->
<g id="node7" class="node">
<title>6</title>
<path fill="none" stroke="#d8ac56" stroke-width="2" d="M435.5,-180C435.5,-180 368.5,-180 368.5,-180 362.5,-180 356.5,-174 356.5,-168 356.5,-168 356.5,-156 356.5,-156 356.5,-150 362.5,-144 368.5,-144 368.5,-144 435.5,-144 435.5,-144 441.5,-144 447.5,-150 447.5,-156 447.5,-156 447.5,-168 447.5,-168 447.5,-174 441.5,-180 435.5,-180"/>
<text text-anchor="middle" x="402" y="-159.5" font-family="sans" font-size="10.00">get_variable_freq</text>
</g>
<!-- 5&#45;&gt;6 -->
<g id="edge8" class="edge">
<title>5&#45;&gt;6</title>
<path fill="none" stroke="grey" stroke-width="2" d="M402,-215.7C402,-207.98 402,-198.71 402,-190.11"/>
<polygon fill="grey" stroke="grey" stroke-width="2" points="405.5,-190.1 402,-180.1 398.5,-190.1 405.5,-190.1"/>
</g>
<!-- 7 -->
<g id="node8" class="node">
<title>7</title>
<path fill="none" stroke="#afd856" stroke-width="2" d="M548.5,-180C548.5,-180 477.5,-180 477.5,-180 471.5,-180 465.5,-174 465.5,-168 465.5,-168 465.5,-156 465.5,-156 465.5,-150 471.5,-144 477.5,-144 477.5,-144 548.5,-144 548.5,-144 554.5,-144 560.5,-150 560.5,-156 560.5,-156 560.5,-168 560.5,-168 560.5,-174 554.5,-180 548.5,-180"/>
<text text-anchor="middle" x="513" y="-159.5" font-family="sans" font-size="10.00">explore_read_size</text>
</g>
<!-- 5&#45;&gt;7 -->
<g id="edge9" class="edge">
<title>5&#45;&gt;7</title>
<path fill="none" stroke="grey" stroke-width="2" d="M429.15,-215.88C443.53,-206.81 461.38,-195.55 476.91,-185.76"/>
<polygon fill="grey" stroke="grey" stroke-width="2" points="479.15,-188.48 485.74,-180.19 475.42,-182.56 479.15,-188.48"/>
</g>
<!-- 6&#45;&gt;1 -->
<g id="edge3" class="edge">
<title>6&#45;&gt;1</title>
<path fill="none" stroke="grey" stroke-width="2" d="M373.13,-143.88C357.71,-134.72 338.52,-123.34 321.9,-113.48"/>
<polygon fill="grey" stroke="grey" stroke-width="2" points="323.36,-110.28 312.98,-108.19 319.79,-116.3 323.36,-110.28"/>
</g>
<!-- 7&#45;&gt;1 -->
<g id="edge5" class="edge">
<title>7&#45;&gt;1</title>
<path fill="none" stroke="grey" stroke-width="2" d="M465.27,-146.41C431.7,-136.15 386.36,-122.29 349.42,-111"/>
<polygon fill="grey" stroke="grey" stroke-width="2" points="350.32,-107.61 339.73,-108.04 348.27,-114.31 350.32,-107.61"/>
</g>
</g>
</svg>
