<?xml version="1.0" encoding="UTF-8" standalone="no"?>
<!DOCTYPE svg PUBLIC "-//W3C//DTD SVG 1.1//EN"
 "http://www.w3.org/Graphics/SVG/1.1/DTD/svg11.dtd">
<!-- Generated by graphviz version 6.0.1 (0)
 -->
<!-- Title: snakemake_dag Pages: 1 -->
<svg width="450pt" height="260pt"
 viewBox="0.00 0.00 450.00 260.00" xmlns="http://www.w3.org/2000/svg" xmlns:xlink="http://www.w3.org/1999/xlink">
<g id="graph0" class="graph" transform="scale(1 1) rotate(0) translate(4 256)">
<title>snakemake_dag</title>
<polygon fill="white" stroke="none" points="-4,4 -4,-256 446,-256 446,4 -4,4"/>
<!-- 0 -->
<g id="node1" class="node">
<title>0</title>
<path fill="none" stroke="#d89556" stroke-width="2" d="M168,-36C168,-36 138,-36 138,-36 132,-36 126,-30 126,-24 126,-24 126,-12 126,-12 126,-6 132,0 138,0 138,0 168,0 168,0 174,0 180,-6 180,-12 180,-12 180,-24 180,-24 180,-30 174,-36 168,-36"/>
<text text-anchor="middle" x="153" y="-15.5" font-family="sans" font-size="10.00">all</text>
</g>
<!-- 1 -->
<g id="node2" class="node">
<title>1</title>
<path fill="none" stroke="#97d856" stroke-width="2" d="M126.5,-108C126.5,-108 49.5,-108 49.5,-108 43.5,-108 37.5,-102 37.5,-96 37.5,-96 37.5,-84 37.5,-84 37.5,-78 43.5,-72 49.5,-72 49.5,-72 126.5,-72 126.5,-72 132.5,-72 138.5,-78 138.5,-84 138.5,-84 138.5,-96 138.5,-96 138.5,-102 132.5,-108 126.5,-108"/>
<text text-anchor="middle" x="88" y="-87.5" font-family="sans" font-size="10.00">extract_accessions</text>
</g>
<!-- 1&#45;&gt;0 -->
<g id="edge1" class="edge">
<title>1&#45;&gt;0</title>
<path fill="none" stroke="grey" stroke-width="2" d="M104.07,-71.7C111.94,-63.22 121.56,-52.86 130.17,-43.58"/>
<polygon fill="grey" stroke="grey" stroke-width="2" points="132.88,-45.81 137.12,-36.1 127.75,-41.05 132.88,-45.81"/>
</g>
<!-- 2 -->
<g id="node3" class="node">
<title>2</title>
<path fill="none" stroke="#56d89a" stroke-width="2" d="M74,-180C74,-180 12,-180 12,-180 6,-180 0,-174 0,-168 0,-168 0,-156 0,-156 0,-150 6,-144 12,-144 12,-144 74,-144 74,-144 80,-144 86,-150 86,-156 86,-156 86,-168 86,-168 86,-174 80,-180 74,-180"/>
<text text-anchor="middle" x="43" y="-159.5" font-family="sans" font-size="10.00">process_runinfo</text>
</g>
<!-- 2&#45;&gt;1 -->
<g id="edge3" class="edge">
<title>2&#45;&gt;1</title>
<path fill="none" stroke="grey" stroke-width="2" d="M54.12,-143.7C59.36,-135.56 65.7,-125.69 71.48,-116.7"/>
<polygon fill="grey" stroke="grey" stroke-width="2" points="74.54,-118.41 77,-108.1 68.65,-114.62 74.54,-118.41"/>
</g>
<!-- 3 -->
<g id="node4" class="node">
<title>3</title>
<path fill="none" stroke="#569ad8" stroke-width="2" d="M134,-252C134,-252 66,-252 66,-252 60,-252 54,-246 54,-240 54,-240 54,-228 54,-228 54,-222 60,-216 66,-216 66,-216 134,-216 134,-216 140,-216 146,-222 146,-228 146,-228 146,-240 146,-240 146,-246 140,-252 134,-252"/>
<text text-anchor="middle" x="100" y="-231.5" font-family="sans" font-size="10.00">fetch_sra_runinfo</text>
</g>
<!-- 3&#45;&gt;2 -->
<g id="edge4" class="edge">
<title>3&#45;&gt;2</title>
<path fill="none" stroke="grey" stroke-width="2" d="M85.91,-215.7C79.08,-207.3 70.74,-197.07 63.24,-187.86"/>
<polygon fill="grey" stroke="grey" stroke-width="2" points="65.96,-185.65 56.93,-180.1 60.53,-190.07 65.96,-185.65"/>
</g>
<!-- 5 -->
<g id="node6" class="node">
<title>5</title>
<path fill="none" stroke="#d85656" stroke-width="2" d="M199.5,-180C199.5,-180 116.5,-180 116.5,-180 110.5,-180 104.5,-174 104.5,-168 104.5,-168 104.5,-156 104.5,-156 104.5,-150 110.5,-144 116.5,-144 116.5,-144 199.5,-144 199.5,-144 205.5,-144 211.5,-150 211.5,-156 211.5,-156 211.5,-168 211.5,-168 211.5,-174 205.5,-180 199.5,-180"/>
<text text-anchor="middle" x="158" y="-159.5" font-family="sans" font-size="10.00">get_runinfo_columns</text>
</g>
<!-- 3&#45;&gt;5 -->
<g id="edge8" class="edge">
<title>3&#45;&gt;5</title>
<path fill="none" stroke="grey" stroke-width="2" d="M114.34,-215.7C121.29,-207.3 129.77,-197.07 137.4,-187.86"/>
<polygon fill="grey" stroke="grey" stroke-width="2" points="140.14,-190.04 143.83,-180.1 134.75,-185.57 140.14,-190.04"/>
</g>
<!-- 4 -->
<g id="node5" class="node">
<title>4</title>
<path fill="none" stroke="#56d8d8" stroke-width="2" d="M290,-108C290,-108 192,-108 192,-108 186,-108 180,-102 180,-96 180,-96 180,-84 180,-84 180,-78 186,-72 192,-72 192,-72 290,-72 290,-72 296,-72 302,-78 302,-84 302,-84 302,-96 302,-96 302,-102 296,-108 290,-108"/>
<text text-anchor="middle" x="241" y="-87.5" font-family="sans" font-size="10.00">deploy_to_github_pages</text>
</g>
<!-- 4&#45;&gt;0 -->
<g id="edge2" class="edge">
<title>4&#45;&gt;0</title>
<path fill="none" stroke="grey" stroke-width="2" d="M219.25,-71.7C208.16,-62.88 194.53,-52.03 182.51,-42.47"/>
<polygon fill="grey" stroke="grey" stroke-width="2" points="184.51,-39.59 174.5,-36.1 180.15,-45.07 184.51,-39.59"/>
</g>
<!-- 5&#45;&gt;4 -->
<g id="edge6" class="edge">
<title>5&#45;&gt;4</title>
<path fill="none" stroke="grey" stroke-width="2" d="M178.52,-143.7C188.87,-134.97 201.59,-124.24 212.84,-114.75"/>
<polygon fill="grey" stroke="grey" stroke-width="2" points="215.33,-117.23 220.72,-108.1 210.82,-111.88 215.33,-117.23"/>
</g>
<!-- 6 -->
<g id="node7" class="node">
<title>6</title>
<path fill="none" stroke="#d6d856" stroke-width="2" d="M286,-180C286,-180 242,-180 242,-180 236,-180 230,-174 230,-168 230,-168 230,-156 230,-156 230,-150 236,-144 242,-144 242,-144 286,-144 286,-144 292,-144 298,-150 298,-156 298,-156 298,-168 298,-168 298,-174 292,-180 286,-180"/>
<text text-anchor="middle" x="264" y="-159.5" font-family="sans" font-size="10.00">project_tree</text>
</g>
<!-- 6&#45;&gt;4 -->
<g id="edge5" class="edge">
<title>6&#45;&gt;4</title>
<path fill="none" stroke="grey" stroke-width="2" d="M258.31,-143.7C255.75,-135.9 252.67,-126.51 249.82,-117.83"/>
<polygon fill="grey" stroke="grey" stroke-width="2" points="253.07,-116.51 246.62,-108.1 246.42,-118.7 253.07,-116.51"/>
</g>
<!-- 7 -->
<g id="node8" class="node">
<title>7</title>
<path fill="none" stroke="#59d856" stroke-width="2" d="M430,-180C430,-180 328,-180 328,-180 322,-180 316,-174 316,-168 316,-168 316,-156 316,-156 316,-150 322,-144 328,-144 328,-144 430,-144 430,-144 436,-144 442,-150 442,-156 442,-156 442,-168 442,-168 442,-174 436,-180 430,-180"/>
<text text-anchor="middle" x="379" y="-159.5" font-family="sans" font-size="10.00">static_snakemake_report</text>
</g>
<!-- 7&#45;&gt;4 -->
<g id="edge7" class="edge">
<title>7&#45;&gt;4</title>
<path fill="none" stroke="grey" stroke-width="2" d="M345.24,-143.88C326.78,-134.51 303.72,-122.81 283.98,-112.8"/>
<polygon fill="grey" stroke="grey" stroke-width="2" points="285.39,-109.59 274.89,-108.19 282.22,-115.83 285.39,-109.59"/>
</g>
</g>
</svg>
