<?xml version="1.0" encoding="UTF-8" standalone="no"?>
<!DOCTYPE svg PUBLIC "-//W3C//DTD SVG 1.1//EN"
 "http://www.w3.org/Graphics/SVG/1.1/DTD/svg11.dtd">
<!-- Generated by graphviz version 6.0.1 (0)
 -->
<!-- Title: snakemake_dag Pages: 1 -->
<svg width="677pt" height="260pt"
 viewBox="0.00 0.00 676.88 260.00" xmlns="http://www.w3.org/2000/svg" xmlns:xlink="http://www.w3.org/1999/xlink">
<g id="graph0" class="graph" transform="scale(1 1) rotate(0) translate(4 256)">
<title>snakemake_dag</title>
<polygon fill="white" stroke="none" points="-4,4 -4,-256 672.88,-256 672.88,4 -4,4"/>
<!-- 0 -->
<g id="node1" class="node">
<title>0</title>
<path fill="none" stroke="#56d8d8" stroke-width="2" d="M151.88,-36C151.88,-36 121.88,-36 121.88,-36 115.88,-36 109.88,-30 109.88,-24 109.88,-24 109.88,-12 109.88,-12 109.88,-6 115.88,0 121.88,0 121.88,0 151.88,0 151.88,0 157.88,0 163.88,-6 163.88,-12 163.88,-12 163.88,-24 163.88,-24 163.88,-30 157.88,-36 151.88,-36"/>
<text text-anchor="middle" x="136.88" y="-15.5" font-family="sans" font-size="10.00">all</text>
</g>
<!-- 1 -->
<g id="node2" class="node">
<title>1</title>
<path fill="none" stroke="#56a9d8" stroke-width="2" d="M113.88,-108C113.88,-108 23.88,-108 23.88,-108 17.88,-108 11.88,-102 11.88,-96 11.88,-96 11.88,-84 11.88,-84 11.88,-78 17.88,-72 23.88,-72 23.88,-72 113.88,-72 113.88,-72 119.88,-72 125.88,-78 125.88,-84 125.88,-84 125.88,-96 125.88,-96 125.88,-102 119.88,-108 113.88,-108"/>
<text text-anchor="middle" x="68.88" y="-87.5" font-family="sans" font-size="10.00">screate_mapping_files</text>
</g>
<!-- 1&#45;&gt;0 -->
<g id="edge2" class="edge">
<title>1&#45;&gt;0</title>
<path fill="none" stroke="grey" stroke-width="2" d="M85.69,-71.7C94.01,-63.14 104.19,-52.66 113.27,-43.3"/>
<polygon fill="grey" stroke="grey" stroke-width="2" points="115.81,-45.72 120.27,-36.1 110.79,-40.84 115.81,-45.72"/>
</g>
<!-- 2 -->
<g id="node3" class="node">
<title>2</title>
<path fill="none" stroke="#d85656" stroke-width="2" d="M153.88,-252C153.88,-252 67.88,-252 67.88,-252 61.88,-252 55.88,-246 55.88,-240 55.88,-240 55.88,-228 55.88,-228 55.88,-222 61.88,-216 67.88,-216 67.88,-216 153.88,-216 153.88,-216 159.88,-216 165.88,-222 165.88,-228 165.88,-228 165.88,-240 165.88,-240 165.88,-246 159.88,-252 153.88,-252"/>
<text text-anchor="middle" x="110.88" y="-231.5" font-family="sans" font-size="10.00">merge_proj_metadata</text>
</g>
<!-- 2&#45;&gt;1 -->
<g id="edge3" class="edge">
<title>2&#45;&gt;1</title>
<path fill="none" stroke="grey" stroke-width="2" d="M55.84,-218.38C36.61,-210.34 17.06,-198.17 5.88,-180 -2.5,-166.37 -0.87,-158.51 5.88,-144 11.31,-132.34 20.7,-122.34 30.6,-114.26"/>
<polygon fill="grey" stroke="grey" stroke-width="2" points="32.73,-117.03 38.58,-108.2 28.5,-111.45 32.73,-117.03"/>
</g>
<!-- 6 -->
<g id="node7" class="node">
<title>6</title>
<path fill="none" stroke="#56d8a9" stroke-width="2" d="M82.88,-180C82.88,-180 26.88,-180 26.88,-180 20.88,-180 14.88,-174 14.88,-168 14.88,-168 14.88,-156 14.88,-156 14.88,-150 20.88,-144 26.88,-144 26.88,-144 82.88,-144 82.88,-144 88.88,-144 94.88,-150 94.88,-156 94.88,-156 94.88,-168 94.88,-168 94.88,-174 88.88,-180 82.88,-180"/>
<text text-anchor="middle" x="54.88" y="-159.5" font-family="sans" font-size="10.00">plot_read_size</text>
</g>
<!-- 2&#45;&gt;6 -->
<g id="edge10" class="edge">
<title>2&#45;&gt;6</title>
<path fill="none" stroke="grey" stroke-width="2" d="M97.04,-215.7C90.39,-207.39 82.3,-197.28 74.99,-188.14"/>
<polygon fill="grey" stroke="grey" stroke-width="2" points="77.54,-185.73 68.56,-180.1 72.08,-190.1 77.54,-185.73"/>
</g>
<!-- 7 -->
<g id="node8" class="node">
<title>7</title>
<path fill="none" stroke="#5682d8" stroke-width="2" d="M208.88,-180C208.88,-180 124.88,-180 124.88,-180 118.88,-180 112.88,-174 112.88,-168 112.88,-168 112.88,-156 112.88,-156 112.88,-150 118.88,-144 124.88,-144 124.88,-144 208.88,-144 208.88,-144 214.88,-144 220.88,-150 220.88,-156 220.88,-156 220.88,-168 220.88,-168 220.88,-174 214.88,-180 208.88,-180"/>
<text text-anchor="middle" x="166.88" y="-159.5" font-family="sans" font-size="10.00">plot_sampling_points</text>
</g>
<!-- 2&#45;&gt;7 -->
<g id="edge11" class="edge">
<title>2&#45;&gt;7</title>
<path fill="none" stroke="grey" stroke-width="2" d="M124.72,-215.7C131.37,-207.39 139.46,-197.28 146.77,-188.14"/>
<polygon fill="grey" stroke="grey" stroke-width="2" points="149.68,-190.1 153.2,-180.1 144.22,-185.73 149.68,-190.1"/>
</g>
<!-- 9 -->
<g id="node10" class="node">
<title>9</title>
<path fill="none" stroke="#d8ac56" stroke-width="2" d="M322.38,-180C322.38,-180 251.38,-180 251.38,-180 245.38,-180 239.38,-174 239.38,-168 239.38,-168 239.38,-156 239.38,-156 239.38,-150 245.38,-144 251.38,-144 251.38,-144 322.38,-144 322.38,-144 328.38,-144 334.38,-150 334.38,-156 334.38,-156 334.38,-168 334.38,-168 334.38,-174 328.38,-180 322.38,-180"/>
<text text-anchor="middle" x="286.88" y="-159.5" font-family="sans" font-size="10.00">explore_read_size</text>
</g>
<!-- 2&#45;&gt;9 -->
<g id="edge12" class="edge">
<title>2&#45;&gt;9</title>
<path fill="none" stroke="grey" stroke-width="2" d="M153.94,-215.88C178.21,-206.22 208.72,-194.09 234.39,-183.88"/>
<polygon fill="grey" stroke="grey" stroke-width="2" points="235.97,-187.02 243.97,-180.07 233.38,-180.51 235.97,-187.02"/>
</g>
<!-- 3 -->
<g id="node4" class="node">
<title>3</title>
<path fill="none" stroke="#80d856" stroke-width="2" d="M335.88,-108C335.88,-108 237.88,-108 237.88,-108 231.88,-108 225.88,-102 225.88,-96 225.88,-96 225.88,-84 225.88,-84 225.88,-78 231.88,-72 237.88,-72 237.88,-72 335.88,-72 335.88,-72 341.88,-72 347.88,-78 347.88,-84 347.88,-84 347.88,-96 347.88,-96 347.88,-102 341.88,-108 335.88,-108"/>
<text text-anchor="middle" x="286.88" y="-87.5" font-family="sans" font-size="10.00">deploy_to_github_pages</text>
</g>
<!-- 3&#45;&gt;0 -->
<g id="edge1" class="edge">
<title>3&#45;&gt;0</title>
<path fill="none" stroke="grey" stroke-width="2" d="M250.19,-71.88C226.86,-60.99 196.78,-46.95 173.47,-36.07"/>
<polygon fill="grey" stroke="grey" stroke-width="2" points="174.8,-32.83 164.26,-31.78 171.84,-39.18 174.8,-32.83"/>
</g>
<!-- 4 -->
<g id="node5" class="node">
<title>4</title>
<path fill="none" stroke="#59d856" stroke-width="2" d="M408.88,-180C408.88,-180 364.88,-180 364.88,-180 358.88,-180 352.88,-174 352.88,-168 352.88,-168 352.88,-156 352.88,-156 352.88,-150 358.88,-144 364.88,-144 364.88,-144 408.88,-144 408.88,-144 414.88,-144 420.88,-150 420.88,-156 420.88,-156 420.88,-168 420.88,-168 420.88,-174 414.88,-180 408.88,-180"/>
<text text-anchor="middle" x="386.88" y="-159.5" font-family="sans" font-size="10.00">project_tree</text>
</g>
<!-- 4&#45;&gt;3 -->
<g id="edge5" class="edge">
<title>4&#45;&gt;3</title>
<path fill="none" stroke="grey" stroke-width="2" d="M362.42,-143.88C349.59,-134.89 333.68,-123.76 319.79,-114.03"/>
<polygon fill="grey" stroke="grey" stroke-width="2" points="321.64,-111.06 311.44,-108.19 317.62,-116.79 321.64,-111.06"/>
</g>
<!-- 5 -->
<g id="node6" class="node">
<title>5</title>
<path fill="none" stroke="#56d882" stroke-width="2" d="M552.88,-180C552.88,-180 450.88,-180 450.88,-180 444.88,-180 438.88,-174 438.88,-168 438.88,-168 438.88,-156 438.88,-156 438.88,-150 444.88,-144 450.88,-144 450.88,-144 552.88,-144 552.88,-144 558.88,-144 564.88,-150 564.88,-156 564.88,-156 564.88,-168 564.88,-168 564.88,-174 558.88,-180 552.88,-180"/>
<text text-anchor="middle" x="501.88" y="-159.5" font-family="sans" font-size="10.00">static_snakemake_report</text>
</g>
<!-- 5&#45;&gt;3 -->
<g id="edge6" class="edge">
<title>5&#45;&gt;3</title>
<path fill="none" stroke="grey" stroke-width="2" d="M449.56,-143.97C419.26,-134.1 380.93,-121.62 349.09,-111.25"/>
<polygon fill="grey" stroke="grey" stroke-width="2" points="350.03,-107.88 339.44,-108.11 347.86,-114.53 350.03,-107.88"/>
</g>
<!-- 6&#45;&gt;3 -->
<g id="edge7" class="edge">
<title>6&#45;&gt;3</title>
<path fill="none" stroke="grey" stroke-width="2" d="M94.94,-146.91C97.96,-145.91 100.96,-144.93 103.88,-144 140.6,-132.32 181.8,-120.3 215.8,-110.66"/>
<polygon fill="grey" stroke="grey" stroke-width="2" points="216.97,-113.96 225.64,-107.88 215.07,-107.23 216.97,-113.96"/>
</g>
<!-- 7&#45;&gt;3 -->
<g id="edge9" class="edge">
<title>7&#45;&gt;3</title>
<path fill="none" stroke="grey" stroke-width="2" d="M196.24,-143.88C211.93,-134.72 231.44,-123.34 248.34,-113.48"/>
<polygon fill="grey" stroke="grey" stroke-width="2" points="250.54,-116.25 257.41,-108.19 247.01,-110.21 250.54,-116.25"/>
</g>
<!-- 8 -->
<g id="node9" class="node">
<title>8</title>
<path fill="none" stroke="#afd856" stroke-width="2" d="M656.88,-180C656.88,-180 594.88,-180 594.88,-180 588.88,-180 582.88,-174 582.88,-168 582.88,-168 582.88,-156 582.88,-156 582.88,-150 588.88,-144 594.88,-144 594.88,-144 656.88,-144 656.88,-144 662.88,-144 668.88,-150 668.88,-156 668.88,-156 668.88,-168 668.88,-168 668.88,-174 662.88,-180 656.88,-180"/>
<text text-anchor="middle" x="625.88" y="-159.5" font-family="sans" font-size="10.00">dot_rules_graph</text>
</g>
<!-- 8&#45;&gt;3 -->
<g id="edge4" class="edge">
<title>8&#45;&gt;3</title>
<path fill="none" stroke="grey" stroke-width="2" d="M582.88,-146.45C579.85,-145.58 576.83,-144.75 573.88,-144 501.27,-125.51 416.79,-110.7 358.37,-101.49"/>
<polygon fill="grey" stroke="grey" stroke-width="2" points="358.56,-97.97 348.14,-99.89 357.48,-104.89 358.56,-97.97"/>
</g>
<!-- 9&#45;&gt;3 -->
<g id="edge8" class="edge">
<title>9&#45;&gt;3</title>
<path fill="none" stroke="grey" stroke-width="2" d="M286.88,-143.7C286.88,-135.98 286.88,-126.71 286.88,-118.11"/>
<polygon fill="grey" stroke="grey" stroke-width="2" points="290.38,-118.1 286.88,-108.1 283.38,-118.1 290.38,-118.1"/>
</g>
</g>
</svg>
