<?xml version="1.0" encoding="UTF-8" standalone="no"?>
<!DOCTYPE svg PUBLIC "-//W3C//DTD SVG 1.1//EN"
 "http://www.w3.org/Graphics/SVG/1.1/DTD/svg11.dtd">
<!-- Generated by graphviz version 6.0.1 (0)
 -->
<!-- Title: snakemake_dag Pages: 1 -->
<svg width="698pt" height="476pt"
 viewBox="0.00 0.00 697.50 476.00" xmlns="http://www.w3.org/2000/svg" xmlns:xlink="http://www.w3.org/1999/xlink">
<g id="graph0" class="graph" transform="scale(1 1) rotate(0) translate(4 472)">
<title>snakemake_dag</title>
<polygon fill="white" stroke="none" points="-4,4 -4,-472 693.5,-472 693.5,4 -4,4"/>
<!-- 0 -->
<g id="node1" class="node">
<title>0</title>
<path fill="none" stroke="#56d8a2" stroke-width="2" d="M577,-36C577,-36 547,-36 547,-36 541,-36 535,-30 535,-24 535,-24 535,-12 535,-12 535,-6 541,0 547,0 547,0 577,0 577,0 583,0 589,-6 589,-12 589,-12 589,-24 589,-24 589,-30 583,-36 577,-36"/>
<text text-anchor="middle" x="562" y="-15.5" font-family="sans" font-size="10.00">all</text>
</g>
<!-- 1 -->
<g id="node2" class="node">
<title>1</title>
<path fill="none" stroke="#d85656" stroke-width="2" d="M324,-108C324,-108 250,-108 250,-108 244,-108 238,-102 238,-96 238,-96 238,-84 238,-84 238,-78 244,-72 250,-72 250,-72 324,-72 324,-72 330,-72 336,-78 336,-84 336,-84 336,-96 336,-96 336,-102 330,-108 324,-108"/>
<text text-anchor="middle" x="287" y="-87.5" font-family="sans" font-size="10.00">github_page_index</text>
</g>
<!-- 1&#45;&gt;0 -->
<g id="edge1" class="edge">
<title>1&#45;&gt;0</title>
<path fill="none" stroke="grey" stroke-width="2" d="M336.16,-76.49C390.4,-62.68 476.42,-40.78 525.15,-28.38"/>
<polygon fill="grey" stroke="grey" stroke-width="2" points="526.13,-31.74 534.96,-25.88 524.4,-24.96 526.13,-31.74"/>
</g>
<!-- 2 -->
<g id="node3" class="node">
<title>2</title>
<path fill="none" stroke="#d87d56" stroke-width="2" d="M207.5,-180C207.5,-180 156.5,-180 156.5,-180 150.5,-180 144.5,-174 144.5,-168 144.5,-168 144.5,-156 144.5,-156 144.5,-150 150.5,-144 156.5,-144 156.5,-144 207.5,-144 207.5,-144 213.5,-144 219.5,-150 219.5,-156 219.5,-156 219.5,-168 219.5,-168 219.5,-174 213.5,-180 207.5,-180"/>
<text text-anchor="middle" x="182" y="-159.5" font-family="sans" font-size="10.00">get_rulegraph</text>
</g>
<!-- 2&#45;&gt;1 -->
<g id="edge4" class="edge">
<title>2&#45;&gt;1</title>
<path fill="none" stroke="grey" stroke-width="2" d="M207.69,-143.88C221.29,-134.81 238.17,-123.55 252.86,-113.76"/>
<polygon fill="grey" stroke="grey" stroke-width="2" points="254.84,-116.65 261.22,-108.19 250.95,-110.82 254.84,-116.65"/>
</g>
<!-- 3 -->
<g id="node4" class="node">
<title>3</title>
<path fill="none" stroke="#56d87b" stroke-width="2" d="M256.5,-252C256.5,-252 187.5,-252 187.5,-252 181.5,-252 175.5,-246 175.5,-240 175.5,-240 175.5,-228 175.5,-228 175.5,-222 181.5,-216 187.5,-216 187.5,-216 256.5,-216 256.5,-216 262.5,-216 268.5,-222 268.5,-228 268.5,-228 268.5,-240 268.5,-240 268.5,-246 262.5,-252 256.5,-252"/>
<text text-anchor="middle" x="222" y="-231.5" font-family="sans" font-size="10.00">plot_variable_freq</text>
</g>
<!-- 3&#45;&gt;1 -->
<g id="edge8" class="edge">
<title>3&#45;&gt;1</title>
<path fill="none" stroke="grey" stroke-width="2" d="M229.84,-215.87C241.02,-191.46 261.63,-146.43 274.81,-117.64"/>
<polygon fill="grey" stroke="grey" stroke-width="2" points="278.15,-118.74 279.13,-108.19 271.79,-115.83 278.15,-118.74"/>
</g>
<!-- 4 -->
<g id="node5" class="node">
<title>4</title>
<path fill="none" stroke="#567bd8" stroke-width="2" d="M211.5,-468C211.5,-468 138.5,-468 138.5,-468 132.5,-468 126.5,-462 126.5,-456 126.5,-456 126.5,-444 126.5,-444 126.5,-438 132.5,-432 138.5,-432 138.5,-432 211.5,-432 211.5,-432 217.5,-432 223.5,-438 223.5,-444 223.5,-444 223.5,-456 223.5,-456 223.5,-462 217.5,-468 211.5,-468"/>
<text text-anchor="middle" x="175" y="-447.5" font-family="sans" font-size="10.00">process_metadata</text>
</g>
<!-- 4&#45;&gt;3 -->
<g id="edge11" class="edge">
<title>4&#45;&gt;3</title>
<path fill="none" stroke="grey" stroke-width="2" d="M181.67,-431.53C185.39,-421.29 189.89,-408.04 193,-396 205,-349.55 213.79,-294.31 218.38,-262.1"/>
<polygon fill="grey" stroke="grey" stroke-width="2" points="221.86,-262.49 219.78,-252.1 214.93,-261.52 221.86,-262.49"/>
</g>
<!-- 5 -->
<g id="node6" class="node">
<title>5</title>
<path fill="none" stroke="#59d856" stroke-width="2" d="M76,-324C76,-324 12,-324 12,-324 6,-324 0,-318 0,-312 0,-312 0,-300 0,-300 0,-294 6,-288 12,-288 12,-288 76,-288 76,-288 82,-288 88,-294 88,-300 88,-300 88,-312 88,-312 88,-318 82,-324 76,-324"/>
<text text-anchor="middle" x="44" y="-303.5" font-family="sans" font-size="10.00">get_sample_gps</text>
</g>
<!-- 4&#45;&gt;5 -->
<g id="edge12" class="edge">
<title>4&#45;&gt;5</title>
<path fill="none" stroke="grey" stroke-width="2" d="M130.48,-431.91C112.87,-423.33 93.62,-411.43 80,-396 64.46,-378.39 55.12,-353.2 49.86,-334.12"/>
<polygon fill="grey" stroke="grey" stroke-width="2" points="53.2,-333.05 47.35,-324.22 46.42,-334.78 53.2,-333.05"/>
</g>
<!-- 7 -->
<g id="node8" class="node">
<title>7</title>
<path fill="none" stroke="#56c9d8" stroke-width="2" d="M172.5,-396C172.5,-396 101.5,-396 101.5,-396 95.5,-396 89.5,-390 89.5,-384 89.5,-384 89.5,-372 89.5,-372 89.5,-366 95.5,-360 101.5,-360 101.5,-360 172.5,-360 172.5,-360 178.5,-360 184.5,-366 184.5,-372 184.5,-372 184.5,-384 184.5,-384 184.5,-390 178.5,-396 172.5,-396"/>
<text text-anchor="middle" x="137" y="-375.5" font-family="sans" font-size="10.00">explore_read_size</text>
</g>
<!-- 4&#45;&gt;7 -->
<g id="edge13" class="edge">
<title>4&#45;&gt;7</title>
<path fill="none" stroke="grey" stroke-width="2" d="M165.61,-431.7C161.24,-423.64 155.94,-413.89 151.1,-404.98"/>
<polygon fill="grey" stroke="grey" stroke-width="2" points="154.13,-403.22 146.29,-396.1 147.98,-406.56 154.13,-403.22"/>
</g>
<!-- 10 -->
<g id="node11" class="node">
<title>10</title>
<path fill="none" stroke="#78d856" stroke-width="2" d="M566,-396C566,-396 484,-396 484,-396 478,-396 472,-390 472,-384 472,-384 472,-372 472,-372 472,-366 478,-360 484,-360 484,-360 566,-360 566,-360 572,-360 578,-366 578,-372 578,-372 578,-384 578,-384 578,-390 572,-396 566,-396"/>
<text text-anchor="middle" x="525" y="-375.5" font-family="sans" font-size="10.00">download_sra_reads</text>
</g>
<!-- 4&#45;&gt;10 -->
<g id="edge16" class="edge">
<title>4&#45;&gt;10</title>
<path fill="none" stroke="grey" stroke-width="2" d="M223.67,-439.27C285.75,-426.85 393.26,-405.35 461.67,-391.67"/>
<polygon fill="grey" stroke="grey" stroke-width="2" points="462.76,-395.02 471.88,-389.62 461.39,-388.15 462.76,-395.02"/>
</g>
<!-- 5&#45;&gt;1 -->
<g id="edge7" class="edge">
<title>5&#45;&gt;1</title>
<path fill="none" stroke="grey" stroke-width="2" d="M45.18,-287.92C48.36,-255.16 60.02,-183.27 102,-144 135.97,-112.23 187.69,-99.34 227.82,-94.19"/>
<polygon fill="grey" stroke="grey" stroke-width="2" points="228.23,-97.67 237.76,-93.04 227.42,-90.71 228.23,-97.67"/>
</g>
<!-- 6 -->
<g id="node7" class="node">
<title>6</title>
<path fill="none" stroke="#c6d856" stroke-width="2" d="M483.5,-180C483.5,-180 404.5,-180 404.5,-180 398.5,-180 392.5,-174 392.5,-168 392.5,-168 392.5,-156 392.5,-156 392.5,-150 398.5,-144 404.5,-144 404.5,-144 483.5,-144 483.5,-144 489.5,-144 495.5,-150 495.5,-156 495.5,-156 495.5,-168 495.5,-168 495.5,-174 489.5,-180 483.5,-180"/>
<text text-anchor="middle" x="444" y="-159.5" font-family="sans" font-size="10.00">get_project_tree_txt</text>
</g>
<!-- 6&#45;&gt;1 -->
<g id="edge6" class="edge">
<title>6&#45;&gt;1</title>
<path fill="none" stroke="grey" stroke-width="2" d="M405.59,-143.88C384.13,-134.31 357.2,-122.3 334.43,-112.15"/>
<polygon fill="grey" stroke="grey" stroke-width="2" points="335.84,-108.94 325.28,-108.07 332.99,-115.34 335.84,-108.94"/>
</g>
<!-- 7&#45;&gt;1 -->
<g id="edge9" class="edge">
<title>7&#45;&gt;1</title>
<path fill="none" stroke="grey" stroke-width="2" d="M130.66,-359.78C116.57,-318.23 87.44,-210.95 135,-144 155.97,-114.47 194.67,-101.26 227.76,-95.41"/>
<polygon fill="grey" stroke="grey" stroke-width="2" points="228.49,-98.84 237.83,-93.82 227.4,-91.92 228.49,-98.84"/>
</g>
<!-- 8 -->
<g id="node9" class="node">
<title>8</title>
<path fill="none" stroke="#56a2d8" stroke-width="2" d="M521.5,-252C521.5,-252 438.5,-252 438.5,-252 432.5,-252 426.5,-246 426.5,-240 426.5,-240 426.5,-228 426.5,-228 426.5,-222 432.5,-216 438.5,-216 438.5,-216 521.5,-216 521.5,-216 527.5,-216 533.5,-222 533.5,-228 533.5,-228 533.5,-240 533.5,-240 533.5,-246 527.5,-252 521.5,-252"/>
<text text-anchor="middle" x="480" y="-231.5" font-family="sans" font-size="10.00">mothur_mapping_file</text>
</g>
<!-- 8&#45;&gt;1 -->
<g id="edge10" class="edge">
<title>8&#45;&gt;1</title>
<path fill="none" stroke="grey" stroke-width="2" d="M492.97,-215.85C505.88,-196.53 521.56,-165.07 505,-144 485.56,-119.26 403.84,-104.64 346.19,-97.22"/>
<polygon fill="grey" stroke="grey" stroke-width="2" points="346.44,-93.72 336.08,-95.96 345.57,-100.67 346.44,-93.72"/>
</g>
<!-- 11 -->
<g id="node12" class="node">
<title>11</title>
<path fill="none" stroke="#d8c356" stroke-width="2" d="M362,-180C362,-180 288,-180 288,-180 282,-180 276,-174 276,-168 276,-168 276,-156 276,-156 276,-150 282,-144 288,-144 288,-144 362,-144 362,-144 368,-144 374,-150 374,-156 374,-156 374,-168 374,-168 374,-174 368,-180 362,-180"/>
<text text-anchor="middle" x="325" y="-159.5" font-family="sans" font-size="10.00">mothur_design_file</text>
</g>
<!-- 8&#45;&gt;11 -->
<g id="edge17" class="edge">
<title>8&#45;&gt;11</title>
<path fill="none" stroke="grey" stroke-width="2" d="M442.08,-215.88C420.99,-206.35 394.54,-194.41 372.13,-184.28"/>
<polygon fill="grey" stroke="grey" stroke-width="2" points="373.35,-180.99 362.79,-180.07 370.47,-187.37 373.35,-180.99"/>
</g>
<!-- 9 -->
<g id="node10" class="node">
<title>9</title>
<path fill="none" stroke="#d8a456" stroke-width="2" d="M517.5,-324C517.5,-324 450.5,-324 450.5,-324 444.5,-324 438.5,-318 438.5,-312 438.5,-312 438.5,-300 438.5,-300 438.5,-294 444.5,-288 450.5,-288 450.5,-288 517.5,-288 517.5,-288 523.5,-288 529.5,-294 529.5,-300 529.5,-300 529.5,-312 529.5,-312 529.5,-318 523.5,-324 517.5,-324"/>
<text text-anchor="middle" x="484" y="-303.5" font-family="sans" font-size="10.00">get_simple_stats</text>
</g>
<!-- 9&#45;&gt;8 -->
<g id="edge14" class="edge">
<title>9&#45;&gt;8</title>
<path fill="none" stroke="grey" stroke-width="2" d="M483.01,-287.7C482.57,-279.98 482.04,-270.71 481.55,-262.11"/>
<polygon fill="grey" stroke="grey" stroke-width="2" points="485.04,-261.89 480.98,-252.1 478.05,-262.29 485.04,-261.89"/>
</g>
<!-- 10&#45;&gt;0 -->
<g id="edge3" class="edge">
<title>10&#45;&gt;0</title>
<path fill="none" stroke="grey" stroke-width="2" d="M532.49,-359.89C543.3,-333.58 562,-281.37 562,-235 562,-235 562,-235 562,-161 562,-121 562,-74.65 562,-46.08"/>
<polygon fill="grey" stroke="grey" stroke-width="2" points="565.5,-46.05 562,-36.05 558.5,-46.05 565.5,-46.05"/>
</g>
<!-- 10&#45;&gt;9 -->
<g id="edge15" class="edge">
<title>10&#45;&gt;9</title>
<path fill="none" stroke="grey" stroke-width="2" d="M514.87,-359.7C510.15,-351.64 504.44,-341.89 499.22,-332.98"/>
<polygon fill="grey" stroke="grey" stroke-width="2" points="502.09,-330.96 494.02,-324.1 496.05,-334.5 502.09,-330.96"/>
</g>
<!-- 12 -->
<g id="node13" class="node">
<title>12</title>
<path fill="none" stroke="#9fd856" stroke-width="2" d="M677.5,-108C677.5,-108 602.5,-108 602.5,-108 596.5,-108 590.5,-102 590.5,-96 590.5,-96 590.5,-84 590.5,-84 590.5,-78 596.5,-72 602.5,-72 602.5,-72 677.5,-72 677.5,-72 683.5,-72 689.5,-78 689.5,-84 689.5,-84 689.5,-96 689.5,-96 689.5,-102 683.5,-108 677.5,-108"/>
<text text-anchor="middle" x="640" y="-87.5" font-family="sans" font-size="10.00">resize_test_subset</text>
</g>
<!-- 10&#45;&gt;12 -->
<g id="edge18" class="edge">
<title>10&#45;&gt;12</title>
<path fill="none" stroke="grey" stroke-width="2" d="M545.96,-359.77C556.35,-350.21 568.3,-337.54 576,-324 614.69,-255.98 630.98,-163.37 636.97,-118.12"/>
<polygon fill="grey" stroke="grey" stroke-width="2" points="640.44,-118.55 638.22,-108.19 633.49,-117.68 640.44,-118.55"/>
</g>
<!-- 11&#45;&gt;1 -->
<g id="edge5" class="edge">
<title>11&#45;&gt;1</title>
<path fill="none" stroke="grey" stroke-width="2" d="M315.61,-143.7C311.24,-135.64 305.94,-125.89 301.1,-116.98"/>
<polygon fill="grey" stroke="grey" stroke-width="2" points="304.13,-115.22 296.29,-108.1 297.98,-118.56 304.13,-115.22"/>
</g>
<!-- 12&#45;&gt;0 -->
<g id="edge2" class="edge">
<title>12&#45;&gt;0</title>
<path fill="none" stroke="grey" stroke-width="2" d="M620.72,-71.7C611.08,-63.05 599.27,-52.45 588.77,-43.03"/>
<polygon fill="grey" stroke="grey" stroke-width="2" points="590.84,-40.18 581.06,-36.1 586.16,-45.39 590.84,-40.18"/>
</g>
</g>
</svg>
