<?xml version="1.0" encoding="UTF-8" standalone="no"?>
<!DOCTYPE svg PUBLIC "-//W3C//DTD SVG 1.1//EN"
 "http://www.w3.org/Graphics/SVG/1.1/DTD/svg11.dtd">
<!-- Generated by graphviz version 6.0.1 (0)
 -->
<!-- Title: snakemake_dag Pages: 1 -->
<svg width="546pt" height="260pt"
 viewBox="0.00 0.00 546.00 260.00" xmlns="http://www.w3.org/2000/svg" xmlns:xlink="http://www.w3.org/1999/xlink">
<g id="graph0" class="graph" transform="scale(1 1) rotate(0) translate(4 256)">
<title>snakemake_dag</title>
<polygon fill="white" stroke="none" points="-4,4 -4,-256 542,-256 542,4 -4,4"/>
<!-- 0 -->
<g id="node1" class="node">
<title>0</title>
<path fill="none" stroke="#d85656" stroke-width="2" d="M145,-36C145,-36 115,-36 115,-36 109,-36 103,-30 103,-24 103,-24 103,-12 103,-12 103,-6 109,0 115,0 115,0 145,0 145,0 151,0 157,-6 157,-12 157,-12 157,-24 157,-24 157,-30 151,-36 145,-36"/>
<text text-anchor="middle" x="130" y="-15.5" font-family="sans" font-size="10.00">all</text>
</g>
<!-- 1 -->
<g id="node2" class="node">
<title>1</title>
<path fill="none" stroke="#d8ac56" stroke-width="2" d="M80,-180C80,-180 12,-180 12,-180 6,-180 0,-174 0,-168 0,-168 0,-156 0,-156 0,-150 6,-144 12,-144 12,-144 80,-144 80,-144 86,-144 92,-150 92,-156 92,-156 92,-168 92,-168 92,-174 86,-180 80,-180"/>
<text text-anchor="middle" x="46" y="-159.5" font-family="sans" font-size="10.00">fetch_sra_runinfo</text>
</g>
<!-- 1&#45;&gt;0 -->
<g id="edge4" class="edge">
<title>1&#45;&gt;0</title>
<path fill="none" stroke="grey" stroke-width="2" d="M34.08,-143.74C22.68,-124.88 9.11,-94.37 23,-72 38.18,-47.54 68.38,-34.02 92.83,-26.77"/>
<polygon fill="grey" stroke="grey" stroke-width="2" points="93.83,-30.13 102.56,-24.12 91.99,-23.37 93.83,-30.13"/>
</g>
<!-- 2 -->
<g id="node3" class="node">
<title>2</title>
<path fill="none" stroke="#d88556" stroke-width="2" d="M131.5,-108C131.5,-108 44.5,-108 44.5,-108 38.5,-108 32.5,-102 32.5,-96 32.5,-96 32.5,-84 32.5,-84 32.5,-78 38.5,-72 44.5,-72 44.5,-72 131.5,-72 131.5,-72 137.5,-72 143.5,-78 143.5,-84 143.5,-84 143.5,-96 143.5,-96 143.5,-102 137.5,-108 131.5,-108"/>
<text text-anchor="middle" x="88" y="-87.5" font-family="sans" font-size="10.00">user_optional_filtering</text>
</g>
<!-- 1&#45;&gt;2 -->
<g id="edge5" class="edge">
<title>1&#45;&gt;2</title>
<path fill="none" stroke="grey" stroke-width="2" d="M56.38,-143.7C61.26,-135.56 67.19,-125.69 72.58,-116.7"/>
<polygon fill="grey" stroke="grey" stroke-width="2" points="75.59,-118.48 77.74,-108.1 69.59,-114.88 75.59,-118.48"/>
</g>
<!-- 2&#45;&gt;0 -->
<g id="edge2" class="edge">
<title>2&#45;&gt;0</title>
<path fill="none" stroke="grey" stroke-width="2" d="M98.38,-71.7C103.26,-63.56 109.19,-53.69 114.58,-44.7"/>
<polygon fill="grey" stroke="grey" stroke-width="2" points="117.59,-46.48 119.74,-36.1 111.59,-42.88 117.59,-46.48"/>
</g>
<!-- 3 -->
<g id="node4" class="node">
<title>3</title>
<path fill="none" stroke="#d6d856" stroke-width="2" d="M259,-252C259,-252 167,-252 167,-252 161,-252 155,-246 155,-240 155,-240 155,-228 155,-228 155,-222 161,-216 167,-216 167,-216 259,-216 259,-216 265,-216 271,-222 271,-228 271,-228 271,-240 271,-240 271,-246 265,-252 259,-252"/>
<text text-anchor="middle" x="213" y="-231.5" font-family="sans" font-size="10.00">process_sra_metadata</text>
</g>
<!-- 3&#45;&gt;0 -->
<g id="edge3" class="edge">
<title>3&#45;&gt;0</title>
<path fill="none" stroke="grey" stroke-width="2" d="M205.66,-215.9C201.28,-205.55 195.68,-192.07 191,-180 172.55,-132.42 170.45,-119.58 152,-72 148.63,-63.32 144.79,-53.92 141.27,-45.47"/>
<polygon fill="grey" stroke="grey" stroke-width="2" points="144.44,-43.97 137.34,-36.1 137.98,-46.68 144.44,-43.97"/>
</g>
<!-- 7 -->
<g id="node8" class="node">
<title>7</title>
<path fill="none" stroke="#afd856" stroke-width="2" d="M296,-180C296,-180 212,-180 212,-180 206,-180 200,-174 200,-168 200,-168 200,-156 200,-156 200,-150 206,-144 212,-144 212,-144 296,-144 296,-144 302,-144 308,-150 308,-156 308,-156 308,-168 308,-168 308,-174 302,-180 296,-180"/>
<text text-anchor="middle" x="254" y="-159.5" font-family="sans" font-size="10.00">plot_sampling_points</text>
</g>
<!-- 3&#45;&gt;7 -->
<g id="edge9" class="edge">
<title>3&#45;&gt;7</title>
<path fill="none" stroke="grey" stroke-width="2" d="M223.13,-215.7C227.85,-207.64 233.56,-197.89 238.78,-188.98"/>
<polygon fill="grey" stroke="grey" stroke-width="2" points="241.95,-190.5 243.98,-180.1 235.91,-186.96 241.95,-190.5"/>
</g>
<!-- 4 -->
<g id="node5" class="node">
<title>4</title>
<path fill="none" stroke="#80d856" stroke-width="2" d="M359,-108C359,-108 261,-108 261,-108 255,-108 249,-102 249,-96 249,-96 249,-84 249,-84 249,-78 255,-72 261,-72 261,-72 359,-72 359,-72 365,-72 371,-78 371,-84 371,-84 371,-96 371,-96 371,-102 365,-108 359,-108"/>
<text text-anchor="middle" x="310" y="-87.5" font-family="sans" font-size="10.00">deploy_to_github_pages</text>
</g>
<!-- 4&#45;&gt;0 -->
<g id="edge1" class="edge">
<title>4&#45;&gt;0</title>
<path fill="none" stroke="grey" stroke-width="2" d="M265.97,-71.88C235.52,-60.04 195.49,-44.47 166.75,-33.29"/>
<polygon fill="grey" stroke="grey" stroke-width="2" points="167.68,-29.9 157.1,-29.54 165.15,-36.42 167.68,-29.9"/>
</g>
<!-- 5 -->
<g id="node6" class="node">
<title>5</title>
<path fill="none" stroke="#59d856" stroke-width="2" d="M382,-180C382,-180 338,-180 338,-180 332,-180 326,-174 326,-168 326,-168 326,-156 326,-156 326,-150 332,-144 338,-144 338,-144 382,-144 382,-144 388,-144 394,-150 394,-156 394,-156 394,-168 394,-168 394,-174 388,-180 382,-180"/>
<text text-anchor="middle" x="360" y="-159.5" font-family="sans" font-size="10.00">project_tree</text>
</g>
<!-- 5&#45;&gt;4 -->
<g id="edge8" class="edge">
<title>5&#45;&gt;4</title>
<path fill="none" stroke="grey" stroke-width="2" d="M347.64,-143.7C341.77,-135.47 334.63,-125.48 328.16,-116.42"/>
<polygon fill="grey" stroke="grey" stroke-width="2" points="330.88,-114.21 322.22,-108.1 325.18,-118.28 330.88,-114.21"/>
</g>
<!-- 6 -->
<g id="node7" class="node">
<title>6</title>
<path fill="none" stroke="#56a9d8" stroke-width="2" d="M526,-180C526,-180 424,-180 424,-180 418,-180 412,-174 412,-168 412,-168 412,-156 412,-156 412,-150 418,-144 424,-144 424,-144 526,-144 526,-144 532,-144 538,-150 538,-156 538,-156 538,-168 538,-168 538,-174 532,-180 526,-180"/>
<text text-anchor="middle" x="475" y="-159.5" font-family="sans" font-size="10.00">static_snakemake_report</text>
</g>
<!-- 6&#45;&gt;4 -->
<g id="edge6" class="edge">
<title>6&#45;&gt;4</title>
<path fill="none" stroke="grey" stroke-width="2" d="M434.64,-143.88C411.98,-134.26 383.53,-122.19 359.53,-112.01"/>
<polygon fill="grey" stroke="grey" stroke-width="2" points="360.81,-108.75 350.23,-108.07 358.07,-115.2 360.81,-108.75"/>
</g>
<!-- 7&#45;&gt;4 -->
<g id="edge7" class="edge">
<title>7&#45;&gt;4</title>
<path fill="none" stroke="grey" stroke-width="2" d="M267.84,-143.7C274.49,-135.39 282.58,-125.28 289.89,-116.14"/>
<polygon fill="grey" stroke="grey" stroke-width="2" points="292.8,-118.1 296.32,-108.1 287.34,-113.73 292.8,-118.1"/>
</g>
</g>
</svg>
