<?xml version="1.0" encoding="UTF-8" standalone="no"?>
<!DOCTYPE svg PUBLIC "-//W3C//DTD SVG 1.1//EN"
 "http://www.w3.org/Graphics/SVG/1.1/DTD/svg11.dtd">
<!-- Generated by graphviz version 6.0.1 (0)
 -->
<!-- Title: snakemake_dag Pages: 1 -->
<svg width="641pt" height="332pt"
 viewBox="0.00 0.00 640.50 332.00" xmlns="http://www.w3.org/2000/svg" xmlns:xlink="http://www.w3.org/1999/xlink">
<g id="graph0" class="graph" transform="scale(1 1) rotate(0) translate(4 328)">
<title>snakemake_dag</title>
<polygon fill="white" stroke="none" points="-4,4 -4,-328 636.5,-328 636.5,4 -4,4"/>
<!-- 0 -->
<g id="node1" class="node">
<title>0</title>
<path fill="none" stroke="#5682d8" stroke-width="2" d="M287.5,-36C287.5,-36 257.5,-36 257.5,-36 251.5,-36 245.5,-30 245.5,-24 245.5,-24 245.5,-12 245.5,-12 245.5,-6 251.5,0 257.5,0 257.5,0 287.5,0 287.5,0 293.5,0 299.5,-6 299.5,-12 299.5,-12 299.5,-24 299.5,-24 299.5,-30 293.5,-36 287.5,-36"/>
<text text-anchor="middle" x="272.5" y="-15.5" font-family="sans" font-size="10.00">all</text>
</g>
<!-- 1 -->
<g id="node2" class="node">
<title>1</title>
<path fill="none" stroke="#d8b456" stroke-width="2" d="M97,-180C97,-180 12,-180 12,-180 6,-180 0,-174 0,-168 0,-168 0,-156 0,-156 0,-150 6,-144 12,-144 12,-144 97,-144 97,-144 103,-144 109,-150 109,-156 109,-156 109,-168 109,-168 109,-174 103,-180 97,-180"/>
<text text-anchor="middle" x="54.5" y="-159.5" font-family="sans" font-size="10.00">create_mapping_files</text>
</g>
<!-- 1&#45;&gt;0 -->
<g id="edge1" class="edge">
<title>1&#45;&gt;0</title>
<path fill="none" stroke="grey" stroke-width="2" d="M61.28,-143.73C70,-123.7 87,-91 111.5,-72 147.96,-43.73 200.15,-30.21 235.12,-23.97"/>
<polygon fill="grey" stroke="grey" stroke-width="2" points="236.1,-27.36 245.39,-22.26 234.95,-20.45 236.1,-27.36"/>
</g>
<!-- 2 -->
<g id="node3" class="node">
<title>2</title>
<path fill="none" stroke="#70d856" stroke-width="2" d="M235,-252C235,-252 136,-252 136,-252 130,-252 124,-246 124,-240 124,-240 124,-228 124,-228 124,-222 130,-216 136,-216 136,-216 235,-216 235,-216 241,-216 247,-222 247,-228 247,-228 247,-240 247,-240 247,-246 241,-252 235,-252"/>
<text text-anchor="middle" x="185.5" y="-231.5" font-family="sans" font-size="10.00">merge_bioproj_metadata</text>
</g>
<!-- 2&#45;&gt;1 -->
<g id="edge6" class="edge">
<title>2&#45;&gt;1</title>
<path fill="none" stroke="grey" stroke-width="2" d="M153.45,-215.88C136.01,-206.55 114.23,-194.92 95.56,-184.94"/>
<polygon fill="grey" stroke="grey" stroke-width="2" points="97.14,-181.82 86.67,-180.19 93.84,-187.99 97.14,-181.82"/>
</g>
<!-- 5 -->
<g id="node6" class="node">
<title>5</title>
<path fill="none" stroke="#d88556" stroke-width="2" d="M232,-180C232,-180 139,-180 139,-180 133,-180 127,-174 127,-168 127,-168 127,-156 127,-156 127,-150 133,-144 139,-144 139,-144 232,-144 232,-144 238,-144 244,-150 244,-156 244,-156 244,-168 244,-168 244,-174 238,-180 232,-180"/>
<text text-anchor="middle" x="185.5" y="-159.5" font-family="sans" font-size="10.00">create_read_size_table</text>
</g>
<!-- 2&#45;&gt;5 -->
<g id="edge9" class="edge">
<title>2&#45;&gt;5</title>
<path fill="none" stroke="grey" stroke-width="2" d="M185.5,-215.7C185.5,-207.98 185.5,-198.71 185.5,-190.11"/>
<polygon fill="grey" stroke="grey" stroke-width="2" points="189,-190.1 185.5,-180.1 182,-190.1 189,-190.1"/>
</g>
<!-- 6 -->
<g id="node7" class="node">
<title>6</title>
<path fill="none" stroke="#56d86b" stroke-width="2" d="M314.5,-108C314.5,-108 230.5,-108 230.5,-108 224.5,-108 218.5,-102 218.5,-96 218.5,-96 218.5,-84 218.5,-84 218.5,-78 224.5,-72 230.5,-72 230.5,-72 314.5,-72 314.5,-72 320.5,-72 326.5,-78 326.5,-84 326.5,-84 326.5,-96 326.5,-96 326.5,-102 320.5,-108 314.5,-108"/>
<text text-anchor="middle" x="272.5" y="-87.5" font-family="sans" font-size="10.00">plot_sampling_points</text>
</g>
<!-- 2&#45;&gt;6 -->
<g id="edge10" class="edge">
<title>2&#45;&gt;6</title>
<path fill="none" stroke="grey" stroke-width="2" d="M215.48,-215.85C228.73,-206.81 243.34,-194.56 252.5,-180 264.2,-161.4 269.09,-136.81 271.12,-118.19"/>
<polygon fill="grey" stroke="grey" stroke-width="2" points="274.62,-118.28 272.01,-108.01 267.65,-117.67 274.62,-118.28"/>
</g>
<!-- 3 -->
<g id="node4" class="node">
<title>3</title>
<path fill="none" stroke="#d85656" stroke-width="2" d="M260,-324C260,-324 111,-324 111,-324 105,-324 99,-318 99,-312 99,-312 99,-300 99,-300 99,-294 105,-288 111,-288 111,-288 260,-288 260,-288 266,-288 272,-294 272,-300 272,-300 272,-312 272,-312 272,-318 266,-324 260,-324"/>
<text text-anchor="middle" x="185.5" y="-303.5" font-family="sans" font-size="10.00">process_downloaded_sra_metadata</text>
</g>
<!-- 3&#45;&gt;2 -->
<g id="edge7" class="edge">
<title>3&#45;&gt;2</title>
<path fill="none" stroke="grey" stroke-width="2" d="M185.5,-287.7C185.5,-279.98 185.5,-270.71 185.5,-262.11"/>
<polygon fill="grey" stroke="grey" stroke-width="2" points="189,-262.1 185.5,-252.1 182,-262.1 189,-262.1"/>
</g>
<!-- 4 -->
<g id="node5" class="node">
<title>4</title>
<path fill="none" stroke="#ced856" stroke-width="2" d="M188.5,-108C188.5,-108 132.5,-108 132.5,-108 126.5,-108 120.5,-102 120.5,-96 120.5,-96 120.5,-84 120.5,-84 120.5,-78 126.5,-72 132.5,-72 132.5,-72 188.5,-72 188.5,-72 194.5,-72 200.5,-78 200.5,-84 200.5,-84 200.5,-96 200.5,-96 200.5,-102 194.5,-108 188.5,-108"/>
<text text-anchor="middle" x="160.5" y="-87.5" font-family="sans" font-size="10.00">plot_read_size</text>
</g>
<!-- 4&#45;&gt;0 -->
<g id="edge2" class="edge">
<title>4&#45;&gt;0</title>
<path fill="none" stroke="grey" stroke-width="2" d="M187.9,-71.88C202.65,-62.66 221.03,-51.17 236.88,-41.26"/>
<polygon fill="grey" stroke="grey" stroke-width="2" points="238.76,-44.22 245.38,-35.95 235.05,-38.28 238.76,-44.22"/>
</g>
<!-- 5&#45;&gt;4 -->
<g id="edge8" class="edge">
<title>5&#45;&gt;4</title>
<path fill="none" stroke="grey" stroke-width="2" d="M179.32,-143.7C176.5,-135.81 173.11,-126.3 169.98,-117.55"/>
<polygon fill="grey" stroke="grey" stroke-width="2" points="173.27,-116.34 166.61,-108.1 166.68,-118.7 173.27,-116.34"/>
</g>
<!-- 6&#45;&gt;0 -->
<g id="edge4" class="edge">
<title>6&#45;&gt;0</title>
<path fill="none" stroke="grey" stroke-width="2" d="M272.5,-71.7C272.5,-63.98 272.5,-54.71 272.5,-46.11"/>
<polygon fill="grey" stroke="grey" stroke-width="2" points="276,-46.1 272.5,-36.1 269,-46.1 276,-46.1"/>
</g>
<!-- 7 -->
<g id="node8" class="node">
<title>7</title>
<path fill="none" stroke="#56d89a" stroke-width="2" d="M458.5,-108C458.5,-108 356.5,-108 356.5,-108 350.5,-108 344.5,-102 344.5,-96 344.5,-96 344.5,-84 344.5,-84 344.5,-78 350.5,-72 356.5,-72 356.5,-72 458.5,-72 458.5,-72 464.5,-72 470.5,-78 470.5,-84 470.5,-84 470.5,-96 470.5,-96 470.5,-102 464.5,-108 458.5,-108"/>
<text text-anchor="middle" x="407.5" y="-87.5" font-family="sans" font-size="10.00">snakemake_static_report</text>
</g>
<!-- 7&#45;&gt;0 -->
<g id="edge5" class="edge">
<title>7&#45;&gt;0</title>
<path fill="none" stroke="grey" stroke-width="2" d="M374.48,-71.88C354.57,-61.56 329.21,-48.4 308.75,-37.8"/>
<polygon fill="grey" stroke="grey" stroke-width="2" points="310.23,-34.62 299.74,-33.12 307,-40.83 310.23,-34.62"/>
</g>
<!-- 8 -->
<g id="node9" class="node">
<title>8</title>
<path fill="none" stroke="#9fd856" stroke-width="2" d="M598.5,-108C598.5,-108 500.5,-108 500.5,-108 494.5,-108 488.5,-102 488.5,-96 488.5,-96 488.5,-84 488.5,-84 488.5,-78 494.5,-72 500.5,-72 500.5,-72 598.5,-72 598.5,-72 604.5,-72 610.5,-78 610.5,-84 610.5,-84 610.5,-96 610.5,-96 610.5,-102 604.5,-108 598.5,-108"/>
<text text-anchor="middle" x="549.5" y="-87.5" font-family="sans" font-size="10.00">deploy_to_github_pages</text>
</g>
<!-- 8&#45;&gt;0 -->
<g id="edge3" class="edge">
<title>8&#45;&gt;0</title>
<path fill="none" stroke="grey" stroke-width="2" d="M488.37,-73.55C433.56,-59.7 354.96,-39.84 309.28,-28.29"/>
<polygon fill="grey" stroke="grey" stroke-width="2" points="310.05,-24.88 299.5,-25.82 308.34,-31.67 310.05,-24.88"/>
</g>
<!-- 9 -->
<g id="node10" class="node">
<title>9</title>
<path fill="none" stroke="#56d8c9" stroke-width="2" d="M534.5,-180C534.5,-180 464.5,-180 464.5,-180 458.5,-180 452.5,-174 452.5,-168 452.5,-168 452.5,-156 452.5,-156 452.5,-150 458.5,-144 464.5,-144 464.5,-144 534.5,-144 534.5,-144 540.5,-144 546.5,-150 546.5,-156 546.5,-156 546.5,-168 546.5,-168 546.5,-174 540.5,-180 534.5,-180"/>
<text text-anchor="middle" x="499.5" y="-159.5" font-family="sans" font-size="10.00">get_dot_rulegraph</text>
</g>
<!-- 9&#45;&gt;8 -->
<g id="edge11" class="edge">
<title>9&#45;&gt;8</title>
<path fill="none" stroke="grey" stroke-width="2" d="M511.86,-143.7C517.73,-135.47 524.87,-125.48 531.34,-116.42"/>
<polygon fill="grey" stroke="grey" stroke-width="2" points="534.32,-118.28 537.28,-108.1 528.62,-114.21 534.32,-118.28"/>
</g>
<!-- 10 -->
<g id="node11" class="node">
<title>10</title>
<path fill="none" stroke="#56b1d8" stroke-width="2" d="M620.5,-180C620.5,-180 576.5,-180 576.5,-180 570.5,-180 564.5,-174 564.5,-168 564.5,-168 564.5,-156 564.5,-156 564.5,-150 570.5,-144 576.5,-144 576.5,-144 620.5,-144 620.5,-144 626.5,-144 632.5,-150 632.5,-156 632.5,-156 632.5,-168 632.5,-168 632.5,-174 626.5,-180 620.5,-180"/>
<text text-anchor="middle" x="598.5" y="-159.5" font-family="sans" font-size="10.00">project_tree</text>
</g>
<!-- 10&#45;&gt;8 -->
<g id="edge12" class="edge">
<title>10&#45;&gt;8</title>
<path fill="none" stroke="grey" stroke-width="2" d="M586.39,-143.7C580.63,-135.47 573.64,-125.48 567.29,-116.42"/>
<polygon fill="grey" stroke="grey" stroke-width="2" points="570.08,-114.29 561.47,-108.1 564.34,-118.3 570.08,-114.29"/>
</g>
</g>
</svg>
