<?xml version="1.0" encoding="UTF-8" standalone="no"?>
<!DOCTYPE svg PUBLIC "-//W3C//DTD SVG 1.1//EN"
 "http://www.w3.org/Graphics/SVG/1.1/DTD/svg11.dtd">
<!-- Generated by graphviz version 6.0.1 (0)
 -->
<!-- Title: snakemake_dag Pages: 1 -->
<svg width="797pt" height="260pt"
 viewBox="0.00 0.00 797.00 260.00" xmlns="http://www.w3.org/2000/svg" xmlns:xlink="http://www.w3.org/1999/xlink">
<g id="graph0" class="graph" transform="scale(1 1) rotate(0) translate(4 256)">
<title>snakemake_dag</title>
<polygon fill="white" stroke="none" points="-4,4 -4,-256 793,-256 793,4 -4,4"/>
<!-- 0 -->
<g id="node1" class="node">
<title>0</title>
<path fill="none" stroke="#56d8a9" stroke-width="2" d="M294.5,-36C294.5,-36 264.5,-36 264.5,-36 258.5,-36 252.5,-30 252.5,-24 252.5,-24 252.5,-12 252.5,-12 252.5,-6 258.5,0 264.5,0 264.5,0 294.5,0 294.5,0 300.5,0 306.5,-6 306.5,-12 306.5,-12 306.5,-24 306.5,-24 306.5,-30 300.5,-36 294.5,-36"/>
<text text-anchor="middle" x="279.5" y="-15.5" font-family="sans" font-size="10.00">all</text>
</g>
<!-- 1 -->
<g id="node2" class="node">
<title>1</title>
<path fill="none" stroke="#56a9d8" stroke-width="2" d="M99,-108C99,-108 12,-108 12,-108 6,-108 0,-102 0,-96 0,-96 0,-84 0,-84 0,-78 6,-72 12,-72 12,-72 99,-72 99,-72 105,-72 111,-78 111,-84 111,-84 111,-96 111,-96 111,-102 105,-108 99,-108"/>
<text text-anchor="middle" x="55.5" y="-87.5" font-family="sans" font-size="10.00">user_optional_filtering</text>
</g>
<!-- 1&#45;&gt;0 -->
<g id="edge5" class="edge">
<title>1&#45;&gt;0</title>
<path fill="none" stroke="grey" stroke-width="2" d="M110.01,-71.97C151.2,-59.09 206.63,-41.77 242.71,-30.5"/>
<polygon fill="grey" stroke="grey" stroke-width="2" points="243.84,-33.81 252.34,-27.49 241.75,-27.13 243.84,-33.81"/>
</g>
<!-- 2 -->
<g id="node3" class="node">
<title>2</title>
<path fill="none" stroke="#59d856" stroke-width="2" d="M178,-180C178,-180 113,-180 113,-180 107,-180 101,-174 101,-168 101,-168 101,-156 101,-156 101,-150 107,-144 113,-144 113,-144 178,-144 178,-144 184,-144 190,-150 190,-156 190,-156 190,-168 190,-168 190,-174 184,-180 178,-180"/>
<text text-anchor="middle" x="145.5" y="-159.5" font-family="sans" font-size="10.00">merge_metadata</text>
</g>
<!-- 2&#45;&gt;0 -->
<g id="edge4" class="edge">
<title>2&#45;&gt;0</title>
<path fill="none" stroke="grey" stroke-width="2" d="M143.39,-143.73C141.97,-124.29 142.69,-92.74 158.5,-72 178.66,-45.56 214.79,-32.07 242.34,-25.34"/>
<polygon fill="grey" stroke="grey" stroke-width="2" points="243.44,-28.68 252.43,-23.08 241.91,-21.85 243.44,-28.68"/>
</g>
<!-- 2&#45;&gt;1 -->
<g id="edge7" class="edge">
<title>2&#45;&gt;1</title>
<path fill="none" stroke="grey" stroke-width="2" d="M123.25,-143.7C111.92,-134.88 97.97,-124.03 85.68,-114.47"/>
<polygon fill="grey" stroke="grey" stroke-width="2" points="87.53,-111.48 77.49,-108.1 83.24,-117.01 87.53,-111.48"/>
</g>
<!-- 5 -->
<g id="node6" class="node">
<title>5</title>
<path fill="none" stroke="#d85656" stroke-width="2" d="M257,-108C257,-108 180,-108 180,-108 174,-108 168,-102 168,-96 168,-96 168,-84 168,-84 168,-78 174,-72 180,-72 180,-72 257,-72 257,-72 263,-72 269,-78 269,-84 269,-84 269,-96 269,-96 269,-102 263,-108 257,-108"/>
<text text-anchor="middle" x="218.5" y="-87.5" font-family="sans" font-size="10.00">extract_accessions</text>
</g>
<!-- 2&#45;&gt;5 -->
<g id="edge12" class="edge">
<title>2&#45;&gt;5</title>
<path fill="none" stroke="grey" stroke-width="2" d="M163.54,-143.7C172.56,-135.05 183.62,-124.45 193.44,-115.03"/>
<polygon fill="grey" stroke="grey" stroke-width="2" points="195.87,-117.55 200.66,-108.1 191.02,-112.5 195.87,-117.55"/>
</g>
<!-- 3 -->
<g id="node4" class="node">
<title>3</title>
<path fill="none" stroke="#80d856" stroke-width="2" d="M380.5,-252C380.5,-252 270.5,-252 270.5,-252 264.5,-252 258.5,-246 258.5,-240 258.5,-240 258.5,-228 258.5,-228 258.5,-222 264.5,-216 270.5,-216 270.5,-216 380.5,-216 380.5,-216 386.5,-216 392.5,-222 392.5,-228 392.5,-228 392.5,-240 392.5,-240 392.5,-246 386.5,-252 380.5,-252"/>
<text text-anchor="middle" x="325.5" y="-231.5" font-family="sans" font-size="10.00">get_n_process_sraruntable</text>
</g>
<!-- 3&#45;&gt;2 -->
<g id="edge9" class="edge">
<title>3&#45;&gt;2</title>
<path fill="none" stroke="grey" stroke-width="2" d="M281.47,-215.88C256.53,-206.18 225.16,-193.98 198.84,-183.74"/>
<polygon fill="grey" stroke="grey" stroke-width="2" points="199.98,-180.43 189.39,-180.07 197.44,-186.95 199.98,-180.43"/>
</g>
<!-- 3&#45;&gt;5 -->
<g id="edge11" class="edge">
<title>3&#45;&gt;5</title>
<path fill="none" stroke="grey" stroke-width="2" d="M312.59,-215.87C293.96,-191.14 259.37,-145.24 237.72,-116.51"/>
<polygon fill="grey" stroke="grey" stroke-width="2" points="240.27,-114.07 231.45,-108.19 234.68,-118.28 240.27,-114.07"/>
</g>
<!-- 6 -->
<g id="node7" class="node">
<title>6</title>
<path fill="none" stroke="#d8ac56" stroke-width="2" d="M437,-180C437,-180 366,-180 366,-180 360,-180 354,-174 354,-168 354,-168 354,-156 354,-156 354,-150 360,-144 366,-144 366,-144 437,-144 437,-144 443,-144 449,-150 449,-156 449,-156 449,-168 449,-168 449,-174 443,-180 437,-180"/>
<text text-anchor="middle" x="401.5" y="-159.5" font-family="sans" font-size="10.00">explore_read_size</text>
</g>
<!-- 3&#45;&gt;6 -->
<g id="edge13" class="edge">
<title>3&#45;&gt;6</title>
<path fill="none" stroke="grey" stroke-width="2" d="M344.29,-215.7C353.67,-207.05 365.18,-196.45 375.41,-187.03"/>
<polygon fill="grey" stroke="grey" stroke-width="2" points="377.95,-189.45 382.93,-180.1 373.2,-184.3 377.95,-189.45"/>
</g>
<!-- 7 -->
<g id="node8" class="node">
<title>7</title>
<path fill="none" stroke="#d6d856" stroke-width="2" d="M383.5,-108C383.5,-108 299.5,-108 299.5,-108 293.5,-108 287.5,-102 287.5,-96 287.5,-96 287.5,-84 287.5,-84 287.5,-78 293.5,-72 299.5,-72 299.5,-72 383.5,-72 383.5,-72 389.5,-72 395.5,-78 395.5,-84 395.5,-84 395.5,-96 395.5,-96 395.5,-102 389.5,-108 383.5,-108"/>
<text text-anchor="middle" x="341.5" y="-87.5" font-family="sans" font-size="10.00">plot_sampling_points</text>
</g>
<!-- 3&#45;&gt;7 -->
<g id="edge14" class="edge">
<title>3&#45;&gt;7</title>
<path fill="none" stroke="grey" stroke-width="2" d="M327.43,-215.87C330.16,-191.67 335.17,-147.21 338.41,-118.39"/>
<polygon fill="grey" stroke="grey" stroke-width="2" points="341.92,-118.52 339.56,-108.19 334.97,-117.73 341.92,-118.52"/>
</g>
<!-- 11 -->
<g id="node12" class="node">
<title>11</title>
<path fill="none" stroke="#56d8d8" stroke-width="2" d="M777,-180C777,-180 710,-180 710,-180 704,-180 698,-174 698,-168 698,-168 698,-156 698,-156 698,-150 704,-144 710,-144 710,-144 777,-144 777,-144 783,-144 789,-150 789,-156 789,-156 789,-168 789,-168 789,-174 783,-180 777,-180"/>
<text text-anchor="middle" x="743.5" y="-159.5" font-family="sans" font-size="10.00">get_variable_freq</text>
</g>
<!-- 3&#45;&gt;11 -->
<g id="edge19" class="edge">
<title>3&#45;&gt;11</title>
<path fill="none" stroke="grey" stroke-width="2" d="M392.64,-226.35C463.79,-218.59 579.44,-203.96 687.93,-179.93"/>
<polygon fill="grey" stroke="grey" stroke-width="2" points="688.74,-183.34 697.73,-177.73 687.2,-176.51 688.74,-183.34"/>
</g>
<!-- 4 -->
<g id="node5" class="node">
<title>4</title>
<path fill="none" stroke="#afd856" stroke-width="2" d="M204.5,-252C204.5,-252 136.5,-252 136.5,-252 130.5,-252 124.5,-246 124.5,-240 124.5,-240 124.5,-228 124.5,-228 124.5,-222 130.5,-216 136.5,-216 136.5,-216 204.5,-216 204.5,-216 210.5,-216 216.5,-222 216.5,-228 216.5,-228 216.5,-240 216.5,-240 216.5,-246 210.5,-252 204.5,-252"/>
<text text-anchor="middle" x="170.5" y="-231.5" font-family="sans" font-size="10.00">fetch_sra_runinfo</text>
</g>
<!-- 4&#45;&gt;2 -->
<g id="edge8" class="edge">
<title>4&#45;&gt;2</title>
<path fill="none" stroke="grey" stroke-width="2" d="M164.32,-215.7C161.5,-207.81 158.11,-198.3 154.98,-189.55"/>
<polygon fill="grey" stroke="grey" stroke-width="2" points="158.27,-188.34 151.61,-180.1 151.68,-190.7 158.27,-188.34"/>
</g>
<!-- 4&#45;&gt;5 -->
<g id="edge10" class="edge">
<title>4&#45;&gt;5</title>
<path fill="none" stroke="grey" stroke-width="2" d="M181.04,-215.87C186.89,-205.75 193.89,-192.5 198.5,-180 205.94,-159.85 211.11,-136.07 214.32,-118.16"/>
<polygon fill="grey" stroke="grey" stroke-width="2" points="217.81,-118.56 216.04,-108.11 210.91,-117.38 217.81,-118.56"/>
</g>
<!-- 5&#45;&gt;0 -->
<g id="edge1" class="edge">
<title>5&#45;&gt;0</title>
<path fill="none" stroke="grey" stroke-width="2" d="M233.58,-71.7C240.89,-63.3 249.81,-53.07 257.84,-43.86"/>
<polygon fill="grey" stroke="grey" stroke-width="2" points="260.66,-45.94 264.59,-36.1 255.39,-41.34 260.66,-45.94"/>
</g>
<!-- 6&#45;&gt;0 -->
<g id="edge3" class="edge">
<title>6&#45;&gt;0</title>
<path fill="none" stroke="grey" stroke-width="2" d="M407.61,-143.67C413.2,-124.47 418.67,-93.4 404.5,-72 385.12,-42.73 345.98,-29.58 316.63,-23.7"/>
<polygon fill="grey" stroke="grey" stroke-width="2" points="317.17,-20.24 306.71,-21.91 315.93,-27.13 317.17,-20.24"/>
</g>
<!-- 8 -->
<g id="node9" class="node">
<title>8</title>
<path fill="none" stroke="#5682d8" stroke-width="2" d="M561.5,-108C561.5,-108 463.5,-108 463.5,-108 457.5,-108 451.5,-102 451.5,-96 451.5,-96 451.5,-84 451.5,-84 451.5,-78 457.5,-72 463.5,-72 463.5,-72 561.5,-72 561.5,-72 567.5,-72 573.5,-78 573.5,-84 573.5,-84 573.5,-96 573.5,-96 573.5,-102 567.5,-108 561.5,-108"/>
<text text-anchor="middle" x="512.5" y="-87.5" font-family="sans" font-size="10.00">deploy_to_github_pages</text>
</g>
<!-- 6&#45;&gt;8 -->
<g id="edge18" class="edge">
<title>6&#45;&gt;8</title>
<path fill="none" stroke="grey" stroke-width="2" d="M428.65,-143.88C443.03,-134.81 460.88,-123.55 476.41,-113.76"/>
<polygon fill="grey" stroke="grey" stroke-width="2" points="478.65,-116.48 485.24,-108.19 474.92,-110.56 478.65,-116.48"/>
</g>
<!-- 7&#45;&gt;0 -->
<g id="edge2" class="edge">
<title>7&#45;&gt;0</title>
<path fill="none" stroke="grey" stroke-width="2" d="M326.17,-71.7C318.74,-63.3 309.68,-53.07 301.52,-43.86"/>
<polygon fill="grey" stroke="grey" stroke-width="2" points="303.9,-41.27 294.65,-36.1 298.66,-45.91 303.9,-41.27"/>
</g>
<!-- 8&#45;&gt;0 -->
<g id="edge6" class="edge">
<title>8&#45;&gt;0</title>
<path fill="none" stroke="grey" stroke-width="2" d="M455.8,-71.97C412.58,-58.98 354.3,-41.47 316.8,-30.21"/>
<polygon fill="grey" stroke="grey" stroke-width="2" points="317.39,-26.73 306.81,-27.2 315.38,-33.43 317.39,-26.73"/>
</g>
<!-- 9 -->
<g id="node10" class="node">
<title>9</title>
<path fill="none" stroke="#d88556" stroke-width="2" d="M523.5,-180C523.5,-180 479.5,-180 479.5,-180 473.5,-180 467.5,-174 467.5,-168 467.5,-168 467.5,-156 467.5,-156 467.5,-150 473.5,-144 479.5,-144 479.5,-144 523.5,-144 523.5,-144 529.5,-144 535.5,-150 535.5,-156 535.5,-156 535.5,-168 535.5,-168 535.5,-174 529.5,-180 523.5,-180"/>
<text text-anchor="middle" x="501.5" y="-159.5" font-family="sans" font-size="10.00">project_tree</text>
</g>
<!-- 9&#45;&gt;8 -->
<g id="edge16" class="edge">
<title>9&#45;&gt;8</title>
<path fill="none" stroke="grey" stroke-width="2" d="M504.22,-143.7C505.43,-135.98 506.89,-126.71 508.24,-118.11"/>
<polygon fill="grey" stroke="grey" stroke-width="2" points="511.72,-118.53 509.81,-108.1 504.8,-117.44 511.72,-118.53"/>
</g>
<!-- 10 -->
<g id="node11" class="node">
<title>10</title>
<path fill="none" stroke="#56d882" stroke-width="2" d="M667.5,-180C667.5,-180 565.5,-180 565.5,-180 559.5,-180 553.5,-174 553.5,-168 553.5,-168 553.5,-156 553.5,-156 553.5,-150 559.5,-144 565.5,-144 565.5,-144 667.5,-144 667.5,-144 673.5,-144 679.5,-150 679.5,-156 679.5,-156 679.5,-168 679.5,-168 679.5,-174 673.5,-180 667.5,-180"/>
<text text-anchor="middle" x="616.5" y="-159.5" font-family="sans" font-size="10.00">static_snakemake_report</text>
</g>
<!-- 10&#45;&gt;8 -->
<g id="edge15" class="edge">
<title>10&#45;&gt;8</title>
<path fill="none" stroke="grey" stroke-width="2" d="M591.06,-143.88C577.71,-134.89 561.18,-123.76 546.72,-114.03"/>
<polygon fill="grey" stroke="grey" stroke-width="2" points="548.29,-110.87 538.04,-108.19 544.38,-116.68 548.29,-110.87"/>
</g>
<!-- 11&#45;&gt;8 -->
<g id="edge17" class="edge">
<title>11&#45;&gt;8</title>
<path fill="none" stroke="grey" stroke-width="2" d="M697.89,-146.87C694.71,-145.9 691.56,-144.93 688.5,-144 652.54,-133.03 612.4,-120.93 579.55,-111.07"/>
<polygon fill="grey" stroke="grey" stroke-width="2" points="580.19,-107.6 569.6,-108.08 578.17,-114.31 580.19,-107.6"/>
</g>
</g>
</svg>
