<?xml version="1.0" encoding="UTF-8" standalone="no"?>
<!DOCTYPE svg PUBLIC "-//W3C//DTD SVG 1.1//EN"
 "http://www.w3.org/Graphics/SVG/1.1/DTD/svg11.dtd">
<!-- Generated by graphviz version 6.0.1 (0)
 -->
<!-- Title: snakemake_dag Pages: 1 -->
<svg width="517pt" height="260pt"
 viewBox="0.00 0.00 517.00 260.00" xmlns="http://www.w3.org/2000/svg" xmlns:xlink="http://www.w3.org/1999/xlink">
<g id="graph0" class="graph" transform="scale(1 1) rotate(0) translate(4 256)">
<title>snakemake_dag</title>
<polygon fill="white" stroke="none" points="-4,4 -4,-256 513,-256 513,4 -4,4"/>
<!-- 0 -->
<g id="node1" class="node">
<title>0</title>
<path fill="none" stroke="#afd856" stroke-width="2" d="M278.5,-36C278.5,-36 248.5,-36 248.5,-36 242.5,-36 236.5,-30 236.5,-24 236.5,-24 236.5,-12 236.5,-12 236.5,-6 242.5,0 248.5,0 248.5,0 278.5,0 278.5,0 284.5,0 290.5,-6 290.5,-12 290.5,-12 290.5,-24 290.5,-24 290.5,-30 284.5,-36 278.5,-36"/>
<text text-anchor="middle" x="263.5" y="-15.5" font-family="sans" font-size="10.00">all</text>
</g>
<!-- 1 -->
<g id="node2" class="node">
<title>1</title>
<path fill="none" stroke="#d85656" stroke-width="2" d="M185.5,-108C185.5,-108 111.5,-108 111.5,-108 105.5,-108 99.5,-102 99.5,-96 99.5,-96 99.5,-84 99.5,-84 99.5,-78 105.5,-72 111.5,-72 111.5,-72 185.5,-72 185.5,-72 191.5,-72 197.5,-78 197.5,-84 197.5,-84 197.5,-96 197.5,-96 197.5,-102 191.5,-108 185.5,-108"/>
<text text-anchor="middle" x="148.5" y="-87.5" font-family="sans" font-size="10.00">github_page_index</text>
</g>
<!-- 1&#45;&gt;0 -->
<g id="edge1" class="edge">
<title>1&#45;&gt;0</title>
<path fill="none" stroke="grey" stroke-width="2" d="M176.63,-71.88C192.01,-62.52 211.21,-50.83 227.64,-40.83"/>
<polygon fill="grey" stroke="grey" stroke-width="2" points="229.73,-43.65 236.45,-35.47 226.09,-37.67 229.73,-43.65"/>
</g>
<!-- 2 -->
<g id="node3" class="node">
<title>2</title>
<path fill="none" stroke="#5692d8" stroke-width="2" d="M174,-180C174,-180 123,-180 123,-180 117,-180 111,-174 111,-168 111,-168 111,-156 111,-156 111,-150 117,-144 123,-144 123,-144 174,-144 174,-144 180,-144 186,-150 186,-156 186,-156 186,-168 186,-168 186,-174 180,-180 174,-180"/>
<text text-anchor="middle" x="148.5" y="-159.5" font-family="sans" font-size="10.00">get_rulegraph</text>
</g>
<!-- 2&#45;&gt;1 -->
<g id="edge9" class="edge">
<title>2&#45;&gt;1</title>
<path fill="none" stroke="grey" stroke-width="2" d="M148.5,-143.7C148.5,-135.98 148.5,-126.71 148.5,-118.11"/>
<polygon fill="grey" stroke="grey" stroke-width="2" points="152,-118.1 148.5,-108.1 145,-118.1 152,-118.1"/>
</g>
<!-- 3 -->
<g id="node4" class="node">
<title>3</title>
<path fill="none" stroke="#56d8a9" stroke-width="2" d="M81,-180C81,-180 12,-180 12,-180 6,-180 0,-174 0,-168 0,-168 0,-156 0,-156 0,-150 6,-144 12,-144 12,-144 81,-144 81,-144 87,-144 93,-150 93,-156 93,-156 93,-168 93,-168 93,-174 87,-180 81,-180"/>
<text text-anchor="middle" x="46.5" y="-159.5" font-family="sans" font-size="10.00">plot_variable_freq</text>
</g>
<!-- 3&#45;&gt;0 -->
<g id="edge5" class="edge">
<title>3&#45;&gt;0</title>
<path fill="none" stroke="grey" stroke-width="2" d="M50.6,-143.69C56.24,-123.61 68.3,-90.87 90.5,-72 129.22,-39.09 188.1,-26.61 226.19,-21.88"/>
<polygon fill="grey" stroke="grey" stroke-width="2" points="226.8,-25.33 236.35,-20.74 226.02,-18.38 226.8,-25.33"/>
</g>
<!-- 3&#45;&gt;1 -->
<g id="edge7" class="edge">
<title>3&#45;&gt;1</title>
<path fill="none" stroke="grey" stroke-width="2" d="M71.45,-143.88C84.54,-134.89 100.76,-123.76 114.94,-114.03"/>
<polygon fill="grey" stroke="grey" stroke-width="2" points="117.19,-116.73 123.45,-108.19 113.23,-110.96 117.19,-116.73"/>
</g>
<!-- 4 -->
<g id="node5" class="node">
<title>4</title>
<path fill="none" stroke="#d8cb56" stroke-width="2" d="M320,-252C320,-252 249,-252 249,-252 243,-252 237,-246 237,-240 237,-240 237,-228 237,-228 237,-222 243,-216 249,-216 249,-216 320,-216 320,-216 326,-216 332,-222 332,-228 332,-228 332,-240 332,-240 332,-246 326,-252 320,-252"/>
<text text-anchor="middle" x="284.5" y="-231.5" font-family="sans" font-size="10.00">get_sra_metadata</text>
</g>
<!-- 4&#45;&gt;0 -->
<g id="edge3" class="edge">
<title>4&#45;&gt;0</title>
<path fill="none" stroke="grey" stroke-width="2" d="M302.9,-215.98C333.03,-185.97 386.76,-122.09 357.5,-72 345.18,-50.91 321.04,-37.56 300.3,-29.53"/>
<polygon fill="grey" stroke="grey" stroke-width="2" points="301.36,-26.19 290.77,-26.11 299,-32.78 301.36,-26.19"/>
</g>
<!-- 4&#45;&gt;3 -->
<g id="edge10" class="edge">
<title>4&#45;&gt;3</title>
<path fill="none" stroke="grey" stroke-width="2" d="M236.65,-219.4C201.93,-209.47 153.58,-195.52 103.08,-180.45"/>
<polygon fill="grey" stroke="grey" stroke-width="2" points="103.87,-177.04 93.29,-177.52 101.87,-183.74 103.87,-177.04"/>
</g>
<!-- 5 -->
<g id="node6" class="node">
<title>5</title>
<path fill="none" stroke="#70d856" stroke-width="2" d="M280.5,-180C280.5,-180 216.5,-180 216.5,-180 210.5,-180 204.5,-174 204.5,-168 204.5,-168 204.5,-156 204.5,-156 204.5,-150 210.5,-144 216.5,-144 216.5,-144 280.5,-144 280.5,-144 286.5,-144 292.5,-150 292.5,-156 292.5,-156 292.5,-168 292.5,-168 292.5,-174 286.5,-180 280.5,-180"/>
<text text-anchor="middle" x="248.5" y="-159.5" font-family="sans" font-size="10.00">get_sample_gps</text>
</g>
<!-- 4&#45;&gt;5 -->
<g id="edge11" class="edge">
<title>4&#45;&gt;5</title>
<path fill="none" stroke="grey" stroke-width="2" d="M275.6,-215.7C271.5,-207.73 266.55,-198.1 262.01,-189.26"/>
<polygon fill="grey" stroke="grey" stroke-width="2" points="264.98,-187.4 257.3,-180.1 258.76,-190.6 264.98,-187.4"/>
</g>
<!-- 7 -->
<g id="node8" class="node">
<title>7</title>
<path fill="none" stroke="#56c9d8" stroke-width="2" d="M337,-108C337,-108 266,-108 266,-108 260,-108 254,-102 254,-96 254,-96 254,-84 254,-84 254,-78 260,-72 266,-72 266,-72 337,-72 337,-72 343,-72 349,-78 349,-84 349,-84 349,-96 349,-96 349,-102 343,-108 337,-108"/>
<text text-anchor="middle" x="301.5" y="-87.5" font-family="sans" font-size="10.00">explore_read_size</text>
</g>
<!-- 4&#45;&gt;7 -->
<g id="edge12" class="edge">
<title>4&#45;&gt;7</title>
<path fill="none" stroke="grey" stroke-width="2" d="M291.57,-215.67C295.34,-205.47 299.59,-192.22 301.5,-180 304.7,-159.52 304.55,-136.06 303.68,-118.37"/>
<polygon fill="grey" stroke="grey" stroke-width="2" points="307.16,-117.96 303.06,-108.18 300.17,-118.38 307.16,-117.96"/>
</g>
<!-- 5&#45;&gt;0 -->
<g id="edge4" class="edge">
<title>5&#45;&gt;0</title>
<path fill="none" stroke="grey" stroke-width="2" d="M245.54,-143.8C242.95,-125.77 240.21,-96.69 244.5,-72 246.02,-63.24 248.86,-54.01 251.89,-45.75"/>
<polygon fill="grey" stroke="grey" stroke-width="2" points="255.22,-46.84 255.61,-36.25 248.71,-44.29 255.22,-46.84"/>
</g>
<!-- 5&#45;&gt;1 -->
<g id="edge8" class="edge">
<title>5&#45;&gt;1</title>
<path fill="none" stroke="grey" stroke-width="2" d="M224.04,-143.88C211.2,-134.89 195.3,-123.76 181.41,-114.03"/>
<polygon fill="grey" stroke="grey" stroke-width="2" points="183.26,-111.06 173.06,-108.19 179.24,-116.79 183.26,-111.06"/>
</g>
<!-- 6 -->
<g id="node7" class="node">
<title>6</title>
<path fill="none" stroke="#d88d56" stroke-width="2" d="M497,-108C497,-108 418,-108 418,-108 412,-108 406,-102 406,-96 406,-96 406,-84 406,-84 406,-78 412,-72 418,-72 418,-72 497,-72 497,-72 503,-72 509,-78 509,-84 509,-84 509,-96 509,-96 509,-102 503,-108 497,-108"/>
<text text-anchor="middle" x="457.5" y="-87.5" font-family="sans" font-size="10.00">get_project_tree_txt</text>
</g>
<!-- 6&#45;&gt;0 -->
<g id="edge2" class="edge">
<title>6&#45;&gt;0</title>
<path fill="none" stroke="grey" stroke-width="2" d="M410.04,-71.88C376.23,-59.68 331.45,-43.52 300.33,-32.29"/>
<polygon fill="grey" stroke="grey" stroke-width="2" points="301.33,-28.93 290.74,-28.83 298.95,-35.51 301.33,-28.93"/>
</g>
<!-- 7&#45;&gt;0 -->
<g id="edge6" class="edge">
<title>7&#45;&gt;0</title>
<path fill="none" stroke="grey" stroke-width="2" d="M292.11,-71.7C287.74,-63.64 282.44,-53.89 277.6,-44.98"/>
<polygon fill="grey" stroke="grey" stroke-width="2" points="280.63,-43.22 272.79,-36.1 274.48,-46.56 280.63,-43.22"/>
</g>
</g>
</svg>
