<?xml version="1.0" encoding="UTF-8" standalone="no"?>
<!DOCTYPE svg PUBLIC "-//W3C//DTD SVG 1.1//EN"
 "http://www.w3.org/Graphics/SVG/1.1/DTD/svg11.dtd">
<!-- Generated by graphviz version 6.0.1 (0)
 -->
<!-- Title: snakemake_dag Pages: 1 -->
<svg width="430pt" height="476pt"
 viewBox="0.00 0.00 430.00 476.00" xmlns="http://www.w3.org/2000/svg" xmlns:xlink="http://www.w3.org/1999/xlink">
<g id="graph0" class="graph" transform="scale(1 1) rotate(0) translate(4 472)">
<title>snakemake_dag</title>
<polygon fill="white" stroke="none" points="-4,4 -4,-472 426,-472 426,4 -4,4"/>
<!-- 0 -->
<g id="node1" class="node">
<title>0</title>
<path fill="none" stroke="#d8cb56" stroke-width="2" d="M255,-36C255,-36 225,-36 225,-36 219,-36 213,-30 213,-24 213,-24 213,-12 213,-12 213,-6 219,0 225,0 225,0 255,0 255,0 261,0 267,-6 267,-12 267,-12 267,-24 267,-24 267,-30 261,-36 255,-36"/>
<text text-anchor="middle" x="240" y="-15.5" font-family="sans" font-size="10.00">all</text>
</g>
<!-- 1 -->
<g id="node2" class="node">
<title>1</title>
<path fill="none" stroke="#68d856" stroke-width="2" d="M289,-108C289,-108 191,-108 191,-108 185,-108 179,-102 179,-96 179,-96 179,-84 179,-84 179,-78 185,-72 191,-72 191,-72 289,-72 289,-72 295,-72 301,-78 301,-84 301,-84 301,-96 301,-96 301,-102 295,-108 289,-108"/>
<text text-anchor="middle" x="240" y="-87.5" font-family="sans" font-size="10.00">deploy_to_github_pages</text>
</g>
<!-- 1&#45;&gt;0 -->
<g id="edge1" class="edge">
<title>1&#45;&gt;0</title>
<path fill="none" stroke="grey" stroke-width="2" d="M240,-71.7C240,-63.98 240,-54.71 240,-46.11"/>
<polygon fill="grey" stroke="grey" stroke-width="2" points="243.5,-46.1 240,-36.1 236.5,-46.1 243.5,-46.1"/>
</g>
<!-- 2 -->
<g id="node3" class="node">
<title>2</title>
<path fill="none" stroke="#56d0d8" stroke-width="2" d="M56,-180C56,-180 12,-180 12,-180 6,-180 0,-174 0,-168 0,-168 0,-156 0,-156 0,-150 6,-144 12,-144 12,-144 56,-144 56,-144 62,-144 68,-150 68,-156 68,-156 68,-168 68,-168 68,-174 62,-180 56,-180"/>
<text text-anchor="middle" x="34" y="-159.5" font-family="sans" font-size="10.00">project_tree</text>
</g>
<!-- 2&#45;&gt;1 -->
<g id="edge5" class="edge">
<title>2&#45;&gt;1</title>
<path fill="none" stroke="grey" stroke-width="2" d="M68.19,-147.26C71.16,-146.13 74.13,-145.03 77,-144 108.95,-132.5 144.8,-120.73 174.72,-111.2"/>
<polygon fill="grey" stroke="grey" stroke-width="2" points="176.16,-114.42 184.63,-108.06 174.04,-107.75 176.16,-114.42"/>
</g>
<!-- 3 -->
<g id="node4" class="node">
<title>3</title>
<path fill="none" stroke="#567bd8" stroke-width="2" d="M169.5,-180C169.5,-180 98.5,-180 98.5,-180 92.5,-180 86.5,-174 86.5,-168 86.5,-168 86.5,-156 86.5,-156 86.5,-150 92.5,-144 98.5,-144 98.5,-144 169.5,-144 169.5,-144 175.5,-144 181.5,-150 181.5,-156 181.5,-156 181.5,-168 181.5,-168 181.5,-174 175.5,-180 169.5,-180"/>
<text text-anchor="middle" x="134" y="-159.5" font-family="sans" font-size="10.00">static_smk_report</text>
</g>
<!-- 3&#45;&gt;1 -->
<g id="edge6" class="edge">
<title>3&#45;&gt;1</title>
<path fill="none" stroke="grey" stroke-width="2" d="M159.93,-143.88C173.66,-134.81 190.71,-123.55 205.54,-113.76"/>
<polygon fill="grey" stroke="grey" stroke-width="2" points="207.55,-116.62 213.97,-108.19 203.7,-110.78 207.55,-116.62"/>
</g>
<!-- 4 -->
<g id="node5" class="node">
<title>4</title>
<path fill="none" stroke="#d87d56" stroke-width="2" d="M268,-180C268,-180 212,-180 212,-180 206,-180 200,-174 200,-168 200,-168 200,-156 200,-156 200,-150 206,-144 212,-144 212,-144 268,-144 268,-144 274,-144 280,-150 280,-156 280,-156 280,-168 280,-168 280,-174 274,-180 268,-180"/>
<text text-anchor="middle" x="240" y="-159.5" font-family="sans" font-size="10.00">plot_read_size</text>
</g>
<!-- 4&#45;&gt;1 -->
<g id="edge2" class="edge">
<title>4&#45;&gt;1</title>
<path fill="none" stroke="grey" stroke-width="2" d="M240,-143.7C240,-135.98 240,-126.71 240,-118.11"/>
<polygon fill="grey" stroke="grey" stroke-width="2" points="243.5,-118.1 240,-108.1 236.5,-118.1 243.5,-118.1"/>
</g>
<!-- 5 -->
<g id="node6" class="node">
<title>5</title>
<path fill="none" stroke="#56d8b9" stroke-width="2" d="M254.5,-252C254.5,-252 161.5,-252 161.5,-252 155.5,-252 149.5,-246 149.5,-240 149.5,-240 149.5,-228 149.5,-228 149.5,-222 155.5,-216 161.5,-216 161.5,-216 254.5,-216 254.5,-216 260.5,-216 266.5,-222 266.5,-228 266.5,-228 266.5,-240 266.5,-240 266.5,-246 260.5,-252 254.5,-252"/>
<text text-anchor="middle" x="208" y="-231.5" font-family="sans" font-size="10.00">create_read_size_table</text>
</g>
<!-- 5&#45;&gt;4 -->
<g id="edge7" class="edge">
<title>5&#45;&gt;4</title>
<path fill="none" stroke="grey" stroke-width="2" d="M215.91,-215.7C219.55,-207.73 223.95,-198.1 227.99,-189.26"/>
<polygon fill="grey" stroke="grey" stroke-width="2" points="231.21,-190.65 232.18,-180.1 224.84,-187.74 231.21,-190.65"/>
</g>
<!-- 6 -->
<g id="node7" class="node">
<title>6</title>
<path fill="none" stroke="#56a9d8" stroke-width="2" d="M322.5,-324C322.5,-324 223.5,-324 223.5,-324 217.5,-324 211.5,-318 211.5,-312 211.5,-312 211.5,-300 211.5,-300 211.5,-294 217.5,-288 223.5,-288 223.5,-288 322.5,-288 322.5,-288 328.5,-288 334.5,-294 334.5,-300 334.5,-300 334.5,-312 334.5,-312 334.5,-318 328.5,-324 322.5,-324"/>
<text text-anchor="middle" x="273" y="-303.5" font-family="sans" font-size="10.00">merge_bioproj_metadata</text>
</g>
<!-- 6&#45;&gt;5 -->
<g id="edge8" class="edge">
<title>6&#45;&gt;5</title>
<path fill="none" stroke="grey" stroke-width="2" d="M256.93,-287.7C249.06,-279.22 239.44,-268.86 230.83,-259.58"/>
<polygon fill="grey" stroke="grey" stroke-width="2" points="233.25,-257.05 223.88,-252.1 228.12,-261.81 233.25,-257.05"/>
</g>
<!-- 9 -->
<g id="node10" class="node">
<title>9</title>
<path fill="none" stroke="#56d892" stroke-width="2" d="M381,-252C381,-252 297,-252 297,-252 291,-252 285,-246 285,-240 285,-240 285,-228 285,-228 285,-222 291,-216 297,-216 297,-216 381,-216 381,-216 387,-216 393,-222 393,-228 393,-228 393,-240 393,-240 393,-246 387,-252 381,-252"/>
<text text-anchor="middle" x="339" y="-231.5" font-family="sans" font-size="10.00">plot_sampling_points</text>
</g>
<!-- 6&#45;&gt;9 -->
<g id="edge11" class="edge">
<title>6&#45;&gt;9</title>
<path fill="none" stroke="grey" stroke-width="2" d="M289.31,-287.7C297.31,-279.22 307.07,-268.86 315.82,-259.58"/>
<polygon fill="grey" stroke="grey" stroke-width="2" points="318.56,-261.78 322.87,-252.1 313.47,-256.98 318.56,-261.78"/>
</g>
<!-- 7 -->
<g id="node8" class="node">
<title>7</title>
<path fill="none" stroke="#d8a456" stroke-width="2" d="M329.5,-396C329.5,-396 216.5,-396 216.5,-396 210.5,-396 204.5,-390 204.5,-384 204.5,-384 204.5,-372 204.5,-372 204.5,-366 210.5,-360 216.5,-360 216.5,-360 329.5,-360 329.5,-360 335.5,-360 341.5,-366 341.5,-372 341.5,-372 341.5,-384 341.5,-384 341.5,-390 335.5,-396 329.5,-396"/>
<text text-anchor="middle" x="273" y="-375.5" font-family="sans" font-size="10.00">download_bioproj_metadata</text>
</g>
<!-- 7&#45;&gt;6 -->
<g id="edge9" class="edge">
<title>7&#45;&gt;6</title>
<path fill="none" stroke="grey" stroke-width="2" d="M273,-359.7C273,-351.98 273,-342.71 273,-334.11"/>
<polygon fill="grey" stroke="grey" stroke-width="2" points="276.5,-334.1 273,-324.1 269.5,-334.1 276.5,-334.1"/>
</g>
<!-- 8 -->
<g id="node9" class="node">
<title>8</title>
<path fill="none" stroke="#56d86b" stroke-width="2" d="M320.5,-468C320.5,-468 225.5,-468 225.5,-468 219.5,-468 213.5,-462 213.5,-456 213.5,-456 213.5,-444 213.5,-444 213.5,-438 219.5,-432 225.5,-432 225.5,-432 320.5,-432 320.5,-432 326.5,-432 332.5,-438 332.5,-444 332.5,-444 332.5,-456 332.5,-456 332.5,-462 326.5,-468 320.5,-468"/>
<text text-anchor="middle" x="273" y="-447.5" font-family="sans" font-size="10.00">get_bioproj_accessions</text>
</g>
<!-- 8&#45;&gt;7 -->
<g id="edge10" class="edge">
<title>8&#45;&gt;7</title>
<path fill="none" stroke="grey" stroke-width="2" d="M273,-431.7C273,-423.98 273,-414.71 273,-406.11"/>
<polygon fill="grey" stroke="grey" stroke-width="2" points="276.5,-406.1 273,-396.1 269.5,-406.1 276.5,-406.1"/>
</g>
<!-- 9&#45;&gt;1 -->
<g id="edge4" class="edge">
<title>9&#45;&gt;1</title>
<path fill="none" stroke="grey" stroke-width="2" d="M330.89,-215.88C321.81,-197.42 306.1,-167.5 289,-144 281.81,-134.13 273,-124.09 264.84,-115.44"/>
<polygon fill="grey" stroke="grey" stroke-width="2" points="267.35,-113.01 257.89,-108.24 262.31,-117.87 267.35,-113.01"/>
</g>
<!-- 10 -->
<g id="node11" class="node">
<title>10</title>
<path fill="none" stroke="#8fd856" stroke-width="2" d="M410,-180C410,-180 348,-180 348,-180 342,-180 336,-174 336,-168 336,-168 336,-156 336,-156 336,-150 342,-144 348,-144 348,-144 410,-144 410,-144 416,-144 422,-150 422,-156 422,-156 422,-168 422,-168 422,-174 416,-180 410,-180"/>
<text text-anchor="middle" x="379" y="-159.5" font-family="sans" font-size="10.00">dot_rules_graph</text>
</g>
<!-- 10&#45;&gt;1 -->
<g id="edge3" class="edge">
<title>10&#45;&gt;1</title>
<path fill="none" stroke="grey" stroke-width="2" d="M345,-143.88C326.4,-134.51 303.17,-122.81 283.29,-112.8"/>
<polygon fill="grey" stroke="grey" stroke-width="2" points="284.64,-109.56 274.13,-108.19 281.49,-115.81 284.64,-109.56"/>
</g>
</g>
</svg>
