<?xml version="1.0" encoding="UTF-8" standalone="no"?>
<!DOCTYPE svg PUBLIC "-//W3C//DTD SVG 1.1//EN"
 "http://www.w3.org/Graphics/SVG/1.1/DTD/svg11.dtd">
<!-- Generated by graphviz version 6.0.1 (0)
 -->
<!-- Title: snakemake_dag Pages: 1 -->
<svg width="607pt" height="332pt"
 viewBox="0.00 0.00 606.50 332.00" xmlns="http://www.w3.org/2000/svg" xmlns:xlink="http://www.w3.org/1999/xlink">
<g id="graph0" class="graph" transform="scale(1 1) rotate(0) translate(4 328)">
<title>snakemake_dag</title>
<polygon fill="white" stroke="none" points="-4,4 -4,-328 602.5,-328 602.5,4 -4,4"/>
<!-- 0 -->
<g id="node1" class="node">
<title>0</title>
<path fill="none" stroke="#59d856" stroke-width="2" d="M281.5,-36C281.5,-36 251.5,-36 251.5,-36 245.5,-36 239.5,-30 239.5,-24 239.5,-24 239.5,-12 239.5,-12 239.5,-6 245.5,0 251.5,0 251.5,0 281.5,0 281.5,0 287.5,0 293.5,-6 293.5,-12 293.5,-12 293.5,-24 293.5,-24 293.5,-30 287.5,-36 281.5,-36"/>
<text text-anchor="middle" x="266.5" y="-15.5" font-family="sans" font-size="10.00">all</text>
</g>
<!-- 1 -->
<g id="node2" class="node">
<title>1</title>
<path fill="none" stroke="#56c9d8" stroke-width="2" d="M97,-252C97,-252 12,-252 12,-252 6,-252 0,-246 0,-240 0,-240 0,-228 0,-228 0,-222 6,-216 12,-216 12,-216 97,-216 97,-216 103,-216 109,-222 109,-228 109,-228 109,-240 109,-240 109,-246 103,-252 97,-252"/>
<text text-anchor="middle" x="54.5" y="-231.5" font-family="sans" font-size="10.00">create_mapping_files</text>
</g>
<!-- 1&#45;&gt;0 -->
<g id="edge4" class="edge">
<title>1&#45;&gt;0</title>
<path fill="none" stroke="grey" stroke-width="2" d="M57.62,-215.91C64.42,-183.46 83.51,-112.54 126.5,-72 154.95,-45.17 198.33,-31.57 229.26,-24.91"/>
<polygon fill="grey" stroke="grey" stroke-width="2" points="230.11,-28.31 239.23,-22.91 228.74,-21.45 230.11,-28.31"/>
</g>
<!-- 2 -->
<g id="node3" class="node">
<title>2</title>
<path fill="none" stroke="#56d87b" stroke-width="2" d="M228.5,-324C228.5,-324 142.5,-324 142.5,-324 136.5,-324 130.5,-318 130.5,-312 130.5,-312 130.5,-300 130.5,-300 130.5,-294 136.5,-288 142.5,-288 142.5,-288 228.5,-288 228.5,-288 234.5,-288 240.5,-294 240.5,-300 240.5,-300 240.5,-312 240.5,-312 240.5,-318 234.5,-324 228.5,-324"/>
<text text-anchor="middle" x="185.5" y="-303.5" font-family="sans" font-size="10.00">merge_proj_metadata</text>
</g>
<!-- 2&#45;&gt;1 -->
<g id="edge5" class="edge">
<title>2&#45;&gt;1</title>
<path fill="none" stroke="grey" stroke-width="2" d="M153.45,-287.88C136.01,-278.55 114.23,-266.92 95.56,-256.94"/>
<polygon fill="grey" stroke="grey" stroke-width="2" points="97.14,-253.82 86.67,-252.19 93.84,-259.99 97.14,-253.82"/>
</g>
<!-- 5 -->
<g id="node6" class="node">
<title>5</title>
<path fill="none" stroke="#c6d856" stroke-width="2" d="M232,-252C232,-252 139,-252 139,-252 133,-252 127,-246 127,-240 127,-240 127,-228 127,-228 127,-222 133,-216 139,-216 139,-216 232,-216 232,-216 238,-216 244,-222 244,-228 244,-228 244,-240 244,-240 244,-246 238,-252 232,-252"/>
<text text-anchor="middle" x="185.5" y="-231.5" font-family="sans" font-size="10.00">create_read_size_table</text>
</g>
<!-- 2&#45;&gt;5 -->
<g id="edge8" class="edge">
<title>2&#45;&gt;5</title>
<path fill="none" stroke="grey" stroke-width="2" d="M185.5,-287.7C185.5,-279.98 185.5,-270.71 185.5,-262.11"/>
<polygon fill="grey" stroke="grey" stroke-width="2" points="189,-262.1 185.5,-252.1 182,-262.1 189,-262.1"/>
</g>
<!-- 10 -->
<g id="node11" class="node">
<title>10</title>
<path fill="none" stroke="#d8a456" stroke-width="2" d="M358.5,-252C358.5,-252 274.5,-252 274.5,-252 268.5,-252 262.5,-246 262.5,-240 262.5,-240 262.5,-228 262.5,-228 262.5,-222 268.5,-216 274.5,-216 274.5,-216 358.5,-216 358.5,-216 364.5,-216 370.5,-222 370.5,-228 370.5,-228 370.5,-240 370.5,-240 370.5,-246 364.5,-252 358.5,-252"/>
<text text-anchor="middle" x="316.5" y="-231.5" font-family="sans" font-size="10.00">plot_sampling_points</text>
</g>
<!-- 2&#45;&gt;10 -->
<g id="edge15" class="edge">
<title>2&#45;&gt;10</title>
<path fill="none" stroke="grey" stroke-width="2" d="M217.55,-287.88C234.99,-278.55 256.77,-266.92 275.44,-256.94"/>
<polygon fill="grey" stroke="grey" stroke-width="2" points="277.16,-259.99 284.33,-252.19 273.86,-253.82 277.16,-259.99"/>
</g>
<!-- 3 -->
<g id="node4" class="node">
<title>3</title>
<path fill="none" stroke="#56d8a2" stroke-width="2" d="M525,-108C525,-108 428,-108 428,-108 422,-108 416,-102 416,-96 416,-96 416,-84 416,-84 416,-78 422,-72 428,-72 428,-72 525,-72 525,-72 531,-72 537,-78 537,-84 537,-84 537,-96 537,-96 537,-102 531,-108 525,-108"/>
<text text-anchor="middle" x="476.5" y="-87.5" font-family="sans" font-size="10.00">get_jobs_runtime_report</text>
</g>
<!-- 3&#45;&gt;0 -->
<g id="edge2" class="edge">
<title>3&#45;&gt;0</title>
<path fill="none" stroke="grey" stroke-width="2" d="M425.4,-71.97C387.61,-59.37 337.04,-42.51 303.19,-31.23"/>
<polygon fill="grey" stroke="grey" stroke-width="2" points="304.28,-27.9 293.69,-28.06 302.07,-34.55 304.28,-27.9"/>
</g>
<!-- 4 -->
<g id="node5" class="node">
<title>4</title>
<path fill="none" stroke="#56a2d8" stroke-width="2" d="M245,-108C245,-108 148,-108 148,-108 142,-108 136,-102 136,-96 136,-96 136,-84 136,-84 136,-78 142,-72 148,-72 148,-72 245,-72 245,-72 251,-72 257,-78 257,-84 257,-84 257,-96 257,-96 257,-102 251,-108 245,-108"/>
<text text-anchor="middle" x="196.5" y="-87.5" font-family="sans" font-size="10.00">create_read_size_report</text>
</g>
<!-- 4&#45;&gt;0 -->
<g id="edge1" class="edge">
<title>4&#45;&gt;0</title>
<path fill="none" stroke="grey" stroke-width="2" d="M213.8,-71.7C222.36,-63.14 232.84,-52.66 242.2,-43.3"/>
<polygon fill="grey" stroke="grey" stroke-width="2" points="244.8,-45.65 249.4,-36.1 239.85,-40.7 244.8,-45.65"/>
</g>
<!-- 5&#45;&gt;4 -->
<g id="edge6" class="edge">
<title>5&#45;&gt;4</title>
<path fill="none" stroke="grey" stroke-width="2" d="M177.44,-215.82C170.06,-197.81 161.17,-168.74 167.5,-144 169.88,-134.7 174.26,-125.27 178.92,-117"/>
<polygon fill="grey" stroke="grey" stroke-width="2" points="182.04,-118.59 184.19,-108.22 176.04,-114.99 182.04,-118.59"/>
</g>
<!-- 6 -->
<g id="node7" class="node">
<title>6</title>
<path fill="none" stroke="#d87d56" stroke-width="2" d="M244.5,-180C244.5,-180 188.5,-180 188.5,-180 182.5,-180 176.5,-174 176.5,-168 176.5,-168 176.5,-156 176.5,-156 176.5,-150 182.5,-144 188.5,-144 188.5,-144 244.5,-144 244.5,-144 250.5,-144 256.5,-150 256.5,-156 256.5,-156 256.5,-168 256.5,-168 256.5,-174 250.5,-180 244.5,-180"/>
<text text-anchor="middle" x="216.5" y="-159.5" font-family="sans" font-size="10.00">plot_read_size</text>
</g>
<!-- 5&#45;&gt;6 -->
<g id="edge9" class="edge">
<title>5&#45;&gt;6</title>
<path fill="none" stroke="grey" stroke-width="2" d="M193.16,-215.7C196.69,-207.73 200.96,-198.1 204.87,-189.26"/>
<polygon fill="grey" stroke="grey" stroke-width="2" points="208.08,-190.67 208.93,-180.1 201.68,-187.83 208.08,-190.67"/>
</g>
<!-- 6&#45;&gt;4 -->
<g id="edge7" class="edge">
<title>6&#45;&gt;4</title>
<path fill="none" stroke="grey" stroke-width="2" d="M211.56,-143.7C209.33,-135.9 206.65,-126.51 204.17,-117.83"/>
<polygon fill="grey" stroke="grey" stroke-width="2" points="207.5,-116.76 201.39,-108.1 200.77,-118.68 207.5,-116.76"/>
</g>
<!-- 7 -->
<g id="node8" class="node">
<title>7</title>
<path fill="none" stroke="#d8c356" stroke-width="2" d="M385.5,-108C385.5,-108 287.5,-108 287.5,-108 281.5,-108 275.5,-102 275.5,-96 275.5,-96 275.5,-84 275.5,-84 275.5,-78 281.5,-72 287.5,-72 287.5,-72 385.5,-72 385.5,-72 391.5,-72 397.5,-78 397.5,-84 397.5,-84 397.5,-96 397.5,-96 397.5,-102 391.5,-108 385.5,-108"/>
<text text-anchor="middle" x="336.5" y="-87.5" font-family="sans" font-size="10.00">deploy_to_github_pages</text>
</g>
<!-- 6&#45;&gt;7 -->
<g id="edge11" class="edge">
<title>6&#45;&gt;7</title>
<path fill="none" stroke="grey" stroke-width="2" d="M245.86,-143.88C261.55,-134.72 281.06,-123.34 297.95,-113.48"/>
<polygon fill="grey" stroke="grey" stroke-width="2" points="300.16,-116.25 307.03,-108.19 296.63,-110.21 300.16,-116.25"/>
</g>
<!-- 7&#45;&gt;0 -->
<g id="edge3" class="edge">
<title>7&#45;&gt;0</title>
<path fill="none" stroke="grey" stroke-width="2" d="M319.2,-71.7C310.64,-63.14 300.16,-52.66 290.8,-43.3"/>
<polygon fill="grey" stroke="grey" stroke-width="2" points="293.15,-40.7 283.6,-36.1 288.2,-45.65 293.15,-40.7"/>
</g>
<!-- 8 -->
<g id="node9" class="node">
<title>8</title>
<path fill="none" stroke="#9fd856" stroke-width="2" d="M368.5,-180C368.5,-180 324.5,-180 324.5,-180 318.5,-180 312.5,-174 312.5,-168 312.5,-168 312.5,-156 312.5,-156 312.5,-150 318.5,-144 324.5,-144 324.5,-144 368.5,-144 368.5,-144 374.5,-144 380.5,-150 380.5,-156 380.5,-156 380.5,-168 380.5,-168 380.5,-174 374.5,-180 368.5,-180"/>
<text text-anchor="middle" x="346.5" y="-159.5" font-family="sans" font-size="10.00">project_tree</text>
</g>
<!-- 8&#45;&gt;7 -->
<g id="edge13" class="edge">
<title>8&#45;&gt;7</title>
<path fill="none" stroke="grey" stroke-width="2" d="M344.03,-143.7C342.93,-135.98 341.6,-126.71 340.37,-118.11"/>
<polygon fill="grey" stroke="grey" stroke-width="2" points="343.82,-117.51 338.94,-108.1 336.89,-118.5 343.82,-117.51"/>
</g>
<!-- 9 -->
<g id="node10" class="node">
<title>9</title>
<path fill="none" stroke="#78d856" stroke-width="2" d="M482,-180C482,-180 411,-180 411,-180 405,-180 399,-174 399,-168 399,-168 399,-156 399,-156 399,-150 405,-144 411,-144 411,-144 482,-144 482,-144 488,-144 494,-150 494,-156 494,-156 494,-168 494,-168 494,-174 488,-180 482,-180"/>
<text text-anchor="middle" x="446.5" y="-159.5" font-family="sans" font-size="10.00">static_smk_report</text>
</g>
<!-- 9&#45;&gt;7 -->
<g id="edge14" class="edge">
<title>9&#45;&gt;7</title>
<path fill="none" stroke="grey" stroke-width="2" d="M419.59,-143.88C405.34,-134.81 387.65,-123.55 372.26,-113.76"/>
<polygon fill="grey" stroke="grey" stroke-width="2" points="373.83,-110.61 363.51,-108.19 370.07,-116.51 373.83,-110.61"/>
</g>
<!-- 10&#45;&gt;7 -->
<g id="edge12" class="edge">
<title>10&#45;&gt;7</title>
<path fill="none" stroke="grey" stroke-width="2" d="M309.83,-215.99C303.69,-197.86 296.5,-168.47 303.5,-144 306.21,-134.51 311.17,-125.06 316.43,-116.83"/>
<polygon fill="grey" stroke="grey" stroke-width="2" points="319.42,-118.67 322.17,-108.43 313.64,-114.72 319.42,-118.67"/>
</g>
<!-- 11 -->
<g id="node12" class="node">
<title>11</title>
<path fill="none" stroke="#d85656" stroke-width="2" d="M586.5,-180C586.5,-180 524.5,-180 524.5,-180 518.5,-180 512.5,-174 512.5,-168 512.5,-168 512.5,-156 512.5,-156 512.5,-150 518.5,-144 524.5,-144 524.5,-144 586.5,-144 586.5,-144 592.5,-144 598.5,-150 598.5,-156 598.5,-156 598.5,-168 598.5,-168 598.5,-174 592.5,-180 586.5,-180"/>
<text text-anchor="middle" x="555.5" y="-159.5" font-family="sans" font-size="10.00">dot_rules_graph</text>
</g>
<!-- 11&#45;&gt;7 -->
<g id="edge10" class="edge">
<title>11&#45;&gt;7</title>
<path fill="none" stroke="grey" stroke-width="2" d="M512.38,-146.87C509.38,-145.9 506.39,-144.93 503.5,-144 469.54,-133.06 431.63,-121.02 400.53,-111.18"/>
<polygon fill="grey" stroke="grey" stroke-width="2" points="401.28,-107.74 390.69,-108.07 399.17,-114.42 401.28,-107.74"/>
</g>
</g>
</svg>
